<svg xmlns="http://www.w3.org/2000/svg" width="357" height="64" viewBox="0 0 357 64">
  <metadata><?xpacket begin="﻿" id="W5M0MpCehiHzreSzNTczkc9d"?>
<x:xmpmeta xmlns:x="adobe:ns:meta/" x:xmptk="Adobe XMP Core 5.6-c138 79.159824, 2016/09/14-01:09:01        ">
   <rdf:RDF xmlns:rdf="http://www.w3.org/1999/02/22-rdf-syntax-ns#">
      <rdf:Description rdf:about=""/>
   </rdf:RDF>
</x:xmpmeta>
                                                                                                    
                                                                                                    
                                                                                                    
                                                                                                    
                                                                                                    
                                                                                                    
                                                                                                    
                                                                                                    
                                                                                                    
                                                                                                    
                                                                                                    
                                                                                                    
                                                                                                    
                                                                                                    
                                                                                                    
                                                                                                    
                                                                                                    
                                                                                                    
                                                                                                    
                                                                                                    
                           
<?xpacket end="w"?></metadata>
<defs>
    <style>
      .cls-1, .cls-2 {
        fill-rule: evenodd;
      }

      .cls-2 {
        fill: red;
      }
    </style>
  </defs>
  <path style="fill:#505152;fill-opacity:1" id="f_ix_p_ru" data-name="f ix p ru" class="cls-1" d="M233.727,49.3v11.5h11.531V49.3H233.727ZM284.105,34.18q7.207-4.394,7.208-13.711a16.3,16.3,0,0,0-2.708-9.527q-5.45-7.734-20.32-7.734H233.727V14.7h34.558a29.323,29.323,0,0,1,7.91.776,5.5,5.5,0,0,1,2.883,1.693,5.771,5.771,0,0,1,.738,3.314,7.1,7.1,0,0,1-.562,3.068q-1.3,2.716-10.969,2.715L234,26V37l30.384,0.766L279.82,60.793h11.493l-15.75-23.625a24.186,24.186,0,0,0,8.542-2.988h0Zm61.743,18.7q7.911-7.91,7.911-20.883V3.207H342.227V32a17.517,17.517,0,0,1-2.423,9.422Q334.923,49.3,324.948,49.3a18.493,18.493,0,0,1-8.394-1.969Q307.7,42.934,307.7,32V3.207H296.173V32q0,12.938,7.927,20.865t20.866,7.928Q337.938,60.793,345.848,52.883Z"/>
  <path style="fill:#505152;fill-opacity:1" id="f_ix_p_ru_копия" data-name="f ix p ru копия" class="cls-2" d="M3.035,3.207V14.7H60.621V3.207H3.035Zm46.09,34.559V26.27H3.035V60.793H14.566V37.766H49.125ZM65.671,60.793H77.2V3.207H65.671V60.793Zm57.081-36L140.015,3.207H128.536L116.99,17.588ZM82.436,3.207l23.05,28.82L82.436,60.793H93.96L111.226,39.2l17.311,21.588h11.479L93.961,3.207H82.436ZM145.358,49.3v11.5h11.531V49.3H145.358ZM145,26V38l34.916-.234q10.97,0,17-4.377t6.03-12.92a16.31,16.31,0,0,0-2.707-9.527q-5.449-7.734-20.321-7.734H145.358V14.7H179.89a29.283,29.283,0,0,1,7.9.776,5.5,5.5,0,0,1,2.881,1.693,5.78,5.78,0,0,1,.737,3.314,7.113,7.113,0,0,1-.561,3.068q-1.3,2.716-10.963,2.715Z"/>
</svg>
