<?xml version="1.0" encoding="utf-8"?>
<!-- Generator: Adobe Illustrator 22.1.0, SVG Export Plug-In . SVG Version: 6.00 Build 0)  -->
<svg version="1.1" id="Слой_1" xmlns="http://www.w3.org/2000/svg" xmlns:xlink="http://www.w3.org/1999/xlink" x="0px" y="0px"
	 viewBox="0 0 128.5 45.8" style="enable-background:new 0 0 128.5 45.8;" xml:space="preserve">
<style type="text/css">
	.st0{fill:#57C8E8;}
	.st1{fill:url(#SVGID_1_);}
	.st2{fill:#095984;}
	.st3{fill:#0285C0;}
	.st4{fill:#414141;}
	.st5{fill:#C3C3C3;}
	.st6{fill:#FFFFFF;}
	.st7{fill:#494848;}
	.st8{fill:#D21B60;}
	.st9{fill:#5D3F43;}
	.st10{fill:#BABB33;}
	.st11{fill:#D0D63C;}
</style>
<g>
	<path class="st0" d="M128.2,38c0,0.8-0.9,2.7-2.4,2.7c-1.5,0-9.4,0-10.9,0c-1.5,0-2.9-1-5-1s-46.4,0-50,0s-9,0-10.3,0
		c-1.3,0-4.4-0.8-5.8-1.7c-1.4-0.9-1.5-1.1-1.5-1.7c0-0.6,0-3.1,0-3.6c0-0.5,1.6-1.1,1.6-2.1c0-1,0-3.9,0-5.3
		c0-1.4,12.4-10.2,16.3-11.1c3.9-1,21.2-1.1,25.8-0.6c4.6,0.4,14.6,5.3,20.8,9.9c6.7,0,14,1.7,17.1,3.6c3.2,1.9,4.2,5.2,4.2,6.5
		C128.2,34.9,128.2,38,128.2,38z"/>
	
		<linearGradient id="SVGID_1_" gradientUnits="userSpaceOnUse" x1="1084.7241" y1="24.8121" x2="1084.7241" y2="32.7916" gradientTransform="matrix(-1 0 0 1 1169.9478 0)">
		<stop  offset="0" style="stop-color:#73C9C3"/>
		<stop  offset="1" style="stop-color:#57C8E8"/>
	</linearGradient>
	<path class="st1" d="M127.3,30.7c0.6,1.2,0.8,2.2,0.8,2.9c0,1.4,0,4.5,0,4.5c0,0.8-0.9,2.7-2.4,2.7c-1.5,0-9.4,0-10.9,0
		c-1.5,0-2.9-1-5-1s-46.4,0-50,0s-9,0-10.3,0c-1.3,0-4.4-0.8-5.8-1.7c-1.4-0.9-1.5-1.1-1.5-1.7c0-0.6,0-3.1,0-3.6
		c0-0.5,1.6-1.1,1.6-2.1c0-0.8,0-3.2,0-4.7L127.3,30.7z"/>
	<g>
		<path class="st2" d="M79.1,26.7c-0.7-7-1.6-11.1-1.7-11.6c0,0,0.1,0,0.1,0c0.1,0.6,1.1,4.7,1.7,11.6c0.6,6.9,0.1,11.1,0,11.7h-0.1
			C79.2,37.9,79.7,33.7,79.1,26.7z"/>
		<path class="st2" d="M103.5,25.7c-0.2-0.3-0.3-0.7-0.2-1.2c0.1-0.6,0.5-1.2,0.9-1.4l0.1,0.1c-0.4,0.2-0.7,0.7-0.8,1.3
			C103.3,25,103.4,25.4,103.5,25.7c0.5,0.3,3.4,0.8,8.7,1.2c1.2,0.1,2,0.1,2.8,0.1c0.9,0,1.9,0,3.6,0.2c2.8,0.2,5.1,0.9,6.3,1.2
			c0.2,0.1,0.4,0.1,0.5,0.1c0.3,0.1,0.5,0.1,0.7,0.1c0,0,0.1,0.1,0.1,0.1c0,0,0,0-0.1,0c-0.2,0-0.4,0-0.7-0.1
			c-0.1,0-0.3-0.1-0.5-0.1c-1.2-0.3-3.5-1-6.3-1.2c-1.7-0.1-2.7-0.2-3.6-0.2c-0.8,0-1.6,0-2.8-0.1C106.8,26.6,103.9,26.2,103.5,25.7
			z"/>
		<path class="st2" d="M61.8,29.3L61.8,29.3c0.9,1.5,2.3,3.3,3.4,4.8c0.8,1.1,1.6,2.1,1.9,2.6c0.7,1.1,1.6,1.8,2.6,1.8h31.1
			c1.3,0,1.3-1.4,1.3-2.6c0-0.1,0-0.2,0-0.3c0-1.3,0-9.2-0.3-10.9c-0.2-1.3-2.1-3.1-5.7-5.1c-2.6-1.5-5.1-2.7-7-3.4
			c-3.2-1.1-7.3-1.3-10.5-1.3l-1,0c-0.7,0-1.7,0-2.9,0c-1.6,0-3.4-0.1-4.9-0.1c-1.5,0-2.5,0-3,0.1c-1.6,0.2-7.1,7.6-7.3,8.9
			C59.3,25.2,60.3,26.9,61.8,29.3z M59.6,24c0.2-1.2,5.7-8.6,7.2-8.8c0.5-0.1,1.4-0.1,3-0.1c1.5,0,3.3,0,4.9,0.1c1,0,2,0,2.6,0
			c0,0,0,0,0-0.1l0.1,0c0,0,0,0,0,0.1c0.1,0,0.1,0,0.2,0l1,0c3.2,0,7.2,0.1,10.4,1.2c1.8,0.6,4.3,1.8,6.9,3.4c3.5,2,5.4,3.7,5.6,5
			c0.3,1.6,0.3,9.6,0.3,10.8c0,0.1,0,0.2,0,0.3c0,1.2,0,2.4-1.2,2.4H79.2c0,0,0,0.1,0,0.1l-0.1,0c0,0,0,0,0-0.1h-9.5
			c-0.9,0-1.8-0.7-2.5-1.8c-0.3-0.5-1-1.5-1.9-2.6c-1.1-1.5-2.5-3.3-3.3-4.7l-0.1-0.1C60.5,26.9,59.4,25.1,59.6,24z"/>
	</g>
	<g>
		<path class="st3" d="M56.8,29.9c4.6,0,8.4,3.7,8.4,8.4c0,0.5-0.1,1-0.1,1.5c-2.6,0-4.5,0-5.1,0c-3.6,0-9,0-10.3,0
			c-0.3,0-0.6,0-1-0.1c-0.1-0.5-0.1-0.9-0.1-1.4C48.4,33.6,52.2,29.9,56.8,29.9z"/>
		<path class="st3" d="M109.9,39.8c-0.5,0-3.2,0-7.2,0c-0.1-0.5-0.1-1-0.1-1.5c0-4.6,3.7-8.4,8.4-8.4s8.4,3.7,8.4,8.4
			c0,0.9-0.1,1.7-0.4,2.5c-1.8,0-3.4,0-4,0C113.4,40.8,112,39.8,109.9,39.8z"/>
	</g>
	<circle class="st4" cx="110.9" cy="38.2" r="7.2"/>
	<circle class="st5" cx="110.9" cy="38.2" r="5.1"/>
	<circle class="st4" cx="56.8" cy="38.2" r="7.2"/>
	<circle class="st5" cx="56.8" cy="38.2" r="5.1"/>
	<path class="st6" d="M125.7,29c0,0,0.8,1,1,1.5c0.2,0.5,0,1-0.7,1c-0.7,0-3.3,0-3.9,0c-0.6,0-1.8-0.9-2.4-1.7
		c-0.6-0.8-1.6-2-1.3-2.2C118.7,27.6,122.2,28,125.7,29z"/>
	<path class="st4" d="M123.8,36.7c0.2-0.5,0.8-0.8,1.2-0.8h3.2c0,1.1,0,2.1,0,2.1c0,0.2-0.1,0.5-0.2,0.9h-4.5
		c-0.5,0-0.6-0.4-0.4-0.8L123.8,36.7z"/>
	<path class="st7" d="M106.9,23.4c0,0-2,0-2.5,0s-1.3-0.1-2.1-0.6s-4.3-3.1-6.4-4.4c-2.2-1.3-3.4-1.9-3.6-2
		c-0.4-0.2-0.5-0.6-0.1-0.6c0.4,0,1.4,0,1.4,0S100.5,18.6,106.9,23.4z"/>
	<path class="st7" d="M99,22.5c0.4,0.3,0.8,1.2,0,1.2c-0.8,0-17.3-0.6-18.1-0.6c-0.8,0-1-0.5-1.1-1c-0.1-0.5-1.1-5.3-1.1-5.7
		c0-0.4,0-0.8,0.7-0.8s6.2,0.2,9.2,1.2C91.6,17.8,95.7,19.9,99,22.5z"/>
	<path class="st7" d="M76.6,16.5c0,0,0.2,5.4,0.2,5.7s-0.1,0.7-0.7,0.7c-0.5,0-17.2-0.4-17.9-0.4c-0.7,0-1-0.3-0.9-0.7
		c0.1-0.5,3.8-5,6.9-5.8c3.1-0.8,11.1-0.3,11.4-0.3C76.1,15.6,76.6,15.8,76.6,16.5z"/>
	<path class="st7" d="M55.4,16.5c0.5,0.2,1.2,0.5,1.4,0.6c0.3,0.1,0.2,0.6-0.5,1c-0.8,0.4-3.2,2.5-4.1,3.4c-1,0.9-1.6,1.2-2.3,1.2
		c-0.4,0-2.1,0-3.3,0C48.8,20.7,52.3,18.3,55.4,16.5z"/>
	<path class="st8" d="M43.9,30.6c0-0.9,0-3.4,0-4.9c1,0,3.5,0,3.9,0c0.6,0,0.9,0.2,0.6,1c-0.3,0.8-1.8,3-2.2,3.3
		c-0.4,0.3-0.8,0.6-1.3,0.6C44.7,30.6,44.3,30.6,43.9,30.6C43.9,30.6,43.9,30.6,43.9,30.6z"/>
	<path class="st8" d="M42.3,34.8c0-0.4,0-0.8,0-1.2h1.3c0.3,0,0.6,0.3,0.6,0.6c0,0.3-0.3,0.6-0.6,0.6H42.3z"/>
</g>
<g>
	<rect x="11.2" y="18.5" class="st9" width="3.5" height="27"/>
	<path class="st10" d="M25.2,12.4c0,6.9-5.6,12.4-12.4,12.4c-6.9,0-12.4-5.6-12.4-12.4C0.3,5.6,5.9,0,12.7,0
		C19.6,0,25.2,5.6,25.2,12.4z"/>
	<rect x="23.3" y="25.2" class="st9" width="2.6" height="20.2"/>
	<path class="st11" d="M33.8,20.7c0,5.2-4.2,9.3-9.3,9.3c-5.2,0-9.3-4.2-9.3-9.3c0-5.2,4.2-9.3,9.3-9.3
		C29.6,11.4,33.8,15.5,33.8,20.7z"/>
</g>
</svg>
