<?xml version="1.0" encoding="utf-8"?>
<!-- Generator: Adobe Illustrator 22.1.0, SVG Export Plug-In . SVG Version: 6.00 Build 0)  -->
<svg version="1.1" id="Слой_1" xmlns="http://www.w3.org/2000/svg" xmlns:xlink="http://www.w3.org/1999/xlink" x="0px" y="0px"
	 viewBox="0 0 14 10.4" style="enable-background:new 0 0 14 10.4;" xml:space="preserve">
<style type="text/css">
	.st0{display:none;}
	.st1{display:inline;fill:#2D8EAF;}
	.st2{fill:#2D8EAF;}
</style>
<g class="st0">
	<path class="st1" d="M6.1,11.8c-3.2,0-5.8-2.6-5.8-5.8c0-3.2,2.6-5.8,5.7-5.8c3.2,0,5.8,2.6,5.8,5.8C11.9,9.2,9.3,11.8,6.1,11.8z
		 M11.2,6c0-2.8-2.2-5.1-5-5.1c-2.8,0-5,2.2-5.1,5c0,2.8,2.2,5.1,5,5.1C8.9,11.1,11.2,8.8,11.2,6z"/>
	<path class="st1" d="M10.4,6c0,2.4-2,4.3-4.3,4.3c-2.3,0-4.3-2-4.2-4.4c0.1-2.4,2-4.2,4.3-4.2C8.6,1.7,10.4,3.7,10.4,6z M5.3,6.4
		C5.3,6.4,5.3,6.4,5.3,6.4c0.3,0,0.6,0,0.8,0c0.1,0,0.1,0,0.2-0.1c0.6-0.6,1.3-1.1,1.9-1.7c0.2-0.2,0.2-0.3,0-0.6
		C8,3.8,7.9,3.8,7.7,4C7.1,4.5,6.6,5,6.1,5.5C6,5.5,5.9,5.6,5.8,5.6c-0.4,0-0.9,0-1.3,0C4.2,5.6,4.1,5.8,4.1,6
		c0,0.2,0.1,0.4,0.4,0.4C4.7,6.4,5,6.4,5.3,6.4z M2.8,6c0-0.3,0-0.3-0.3-0.3c-0.3,0-0.4,0-0.4,0.3c0,0.4,0,0.4,0.3,0.4
		C2.8,6.4,2.8,6.4,2.8,6z M5.8,9.6c0,0.3,0,0.4,0.3,0.4c0.4,0,0.4,0,0.4-0.4c0-0.3,0-0.4-0.3-0.4C5.8,9.3,5.8,9.3,5.8,9.6z M5.8,2.4
		c0,0.3,0,0.4,0.4,0.4c0.3,0,0.3,0,0.3-0.4C6.5,2,6.5,2,6.1,2C5.8,2,5.8,2,5.8,2.4z M9.5,6c0,0.4,0,0.4,0.4,0.4
		c0.2,0,0.2-0.1,0.2-0.4c0-0.2-0.1-0.3-0.4-0.3C9.5,5.6,9.5,5.7,9.5,6z"/>
</g>
<g>
	<path class="st2" d="M13.5,3.2h-1c-0.1,0-0.1,0-0.2,0.1l-0.2,0.2c-0.4-0.8-0.9-1.6-1.6-2.5C10.1,0.5,9.6,0.3,9,0.3H5
		C4.4,0.3,3.9,0.5,3.5,1C2.8,1.8,2.3,2.6,1.9,3.5L1.7,3.3C1.7,3.2,1.6,3.2,1.5,3.2h-1c-0.2,0-0.3,0.1-0.3,0.3v0.7
		c0,0.2,0.1,0.3,0.3,0.3l1,0.1C1.4,5,1.3,5.6,1.3,6.6c0,0.8,0.2,1.4,0.4,1.7v1.6c0,0.1,0.1,0.2,0.2,0.2h1.1c0.1,0,0.2-0.1,0.2-0.2
		v-1h7.3v1c0,0.1,0.1,0.2,0.2,0.2h1.1c0.1,0,0.2-0.1,0.2-0.2V8.3c0.3-0.3,0.4-0.9,0.4-1.7c0-0.9-0.1-1.6-0.3-2.1l1-0.1
		c0.2,0,0.3-0.1,0.3-0.3V3.5C13.8,3.3,13.6,3.2,13.5,3.2L13.5,3.2z M4.3,1.7C4.5,1.5,4.8,1.3,5,1.3h4c0.3,0,0.5,0.1,0.7,0.3
		c0.5,0.6,0.9,1.2,1.2,1.7l-7.7,0C3.5,2.8,3.9,2.3,4.3,1.7L4.3,1.7z M3.5,7.7c-0.6,0-1-0.2-1-0.6c0-0.4,0.2-0.8,0.7-0.8
		c0.6,0,1.3,0.4,1.3,0.8C4.5,7.5,4.1,7.7,3.5,7.7L3.5,7.7z M8.1,7.6H5.9C5.6,7.6,5.4,7.3,5.4,7c0-0.1,0.1-0.2,0.2-0.2h3
		c0.1,0,0.2,0.1,0.2,0.2C8.7,7.3,8.4,7.6,8.1,7.6L8.1,7.6z M10.5,7.7c-0.6,0-1-0.2-1-0.6c0-0.4,0.7-0.8,1.3-0.8
		c0.6,0,0.7,0.4,0.7,0.8C11.5,7.5,11.1,7.7,10.5,7.7L10.5,7.7z M10.5,7.7"/>
</g>
</svg>
