<?xml version="1.0" encoding="utf-8"?>
<!-- Generator: Adobe Illustrator 22.1.0, SVG Export Plug-In . SVG Version: 6.00 Build 0)  -->
<svg version="1.1" id="Слой_1" xmlns="http://www.w3.org/2000/svg" xmlns:xlink="http://www.w3.org/1999/xlink" x="0px" y="0px"
	 viewBox="0 0 12.1 15.5" style="enable-background:new 0 0 12.1 15.5;" xml:space="preserve">
<style type="text/css">
	.st0{display:none;}
	.st1{display:inline;fill:#2D8EAF;}
	.st2{fill:#2D8EAF;}
</style>
<g class="st0">
	<path class="st1" d="M7.4,10.6c-3.2,0-5.8-2.6-5.8-5.8C1.6,1.6,4.2-1,7.4-1c3.2,0,5.8,2.6,5.8,5.8C13.2,8,10.6,10.6,7.4,10.6z
		 M12.5,4.8c0-2.8-2.2-5.1-5-5.1c-2.8,0-5,2.2-5.1,5c0,2.8,2.2,5.1,5,5.1C10.2,9.8,12.5,7.6,12.5,4.8z"/>
	<path class="st1" d="M11.7,4.8c0,2.4-2,4.3-4.3,4.3C5,9,3.1,7.1,3.2,4.7c0.1-2.4,2-4.2,4.3-4.2C9.9,0.5,11.7,2.5,11.7,4.8z
		 M6.6,5.2C6.6,5.2,6.6,5.2,6.6,5.2c0.3,0,0.6,0,0.8,0c0.1,0,0.1,0,0.2-0.1C8.2,4.5,8.8,4,9.5,3.4c0.2-0.2,0.2-0.3,0-0.6
		c-0.2-0.2-0.3-0.2-0.6,0c-0.5,0.5-1.1,1-1.6,1.4C7.3,4.3,7.1,4.4,7,4.4c-0.4,0-0.9,0-1.3,0c-0.2,0-0.4,0.2-0.4,0.4
		c0,0.2,0.1,0.4,0.4,0.4C6,5.2,6.3,5.2,6.6,5.2z M4.1,4.8c0-0.3,0-0.3-0.3-0.3c-0.3,0-0.4,0-0.4,0.3c0,0.4,0,0.4,0.3,0.4
		C4.1,5.1,4.1,5.1,4.1,4.8z M7.1,8.4c0,0.3,0,0.4,0.3,0.4c0.4,0,0.4,0,0.4-0.4c0-0.3,0-0.4-0.3-0.4C7.1,8,7.1,8.1,7.1,8.4z M7.1,1.2
		c0,0.3,0,0.4,0.4,0.4c0.3,0,0.3,0,0.3-0.4c0-0.3,0-0.4-0.4-0.4C7.1,0.8,7.1,0.8,7.1,1.2z M10.7,4.7c0,0.4,0,0.4,0.4,0.4
		c0.2,0,0.2-0.1,0.2-0.4c0-0.2-0.1-0.3-0.4-0.3C10.8,4.4,10.7,4.4,10.7,4.7z"/>
</g>
<g>
	<path class="st2" d="M8.2,8.9C8.1,8.8,7.9,8.7,7.7,8.7H4.4C4.2,8.7,4,8.8,3.9,8.9C3.8,9.1,3.7,9.3,3.7,9.4l0.6,3.9
		c0,0.3,0.3,0.6,0.6,0.6h2.2c0.3,0,0.6-0.2,0.6-0.5l0.6-3.9C8.4,9.3,8.3,9.1,8.2,8.9L8.2,8.9z M8.2,8.9"/>
	<g>
		<path class="st2" d="M3.2,10.2c-0.2-0.1-0.4-0.1-0.6,0.1l-1.5,1c-0.3,0.2-0.4,0.6-0.2,0.9L2.2,14c0.2,0.3,0.5,0.4,0.8,0.2l0.6-0.3
			c0.2-0.1,0.4-0.4,0.3-0.6l-0.4-2.6C3.5,10.4,3.4,10.2,3.2,10.2L3.2,10.2z M3.2,10.2"/>
		<path class="st2" d="M1.1,13.2c-0.1-0.1-0.2-0.1-0.3-0.1c-0.1,0-0.2,0.1-0.2,0.2l-0.3,1.4c0,0.1,0,0.2,0.1,0.3
			c0.1,0.1,0.2,0.1,0.3,0l0.9-0.6c0.1,0,0.1-0.1,0.1-0.2c0-0.1,0-0.2-0.1-0.2L1.1,13.2z M1.1,13.2"/>
	</g>
	<path class="st2" d="M11,11.2l-1.5-1c-0.2-0.1-0.4-0.1-0.6-0.1c-0.2,0.1-0.3,0.3-0.4,0.5l-0.4,2.6c0,0.3,0.1,0.5,0.3,0.6l0.6,0.3
		c0.3,0.2,0.6,0.1,0.8-0.2l1.3-1.9C11.4,11.8,11.3,11.4,11,11.2L11,11.2z M11,11.2"/>
	<path class="st2" d="M11.8,14.8l-0.3-1.4c0-0.1-0.1-0.2-0.2-0.2c-0.1,0-0.2,0-0.3,0.1l-0.7,0.9c-0.1,0.1-0.1,0.2-0.1,0.2
		c0,0.1,0.1,0.2,0.1,0.2l0.9,0.6c0.1,0.1,0.2,0.1,0.3,0C11.8,15,11.8,14.9,11.8,14.8L11.8,14.8z M11.8,14.8"/>
	<path class="st2" d="M6.1,8c0.5,0,4.6,0,4.6-1.4c0-0.6-0.8-1-1.8-1.2C8.9,5.3,9,5.3,9,5.2l0.6-0.1c0.5,0,1-0.4,1-0.9l0.1-1.1
		c0-0.3-0.1-0.5-0.3-0.8C10.3,2.1,10,2.1,9.8,2.1H9.5l0.1-0.9c0,0,0,0,0,0c0,0,0,0,0,0c0-0.5-1.5-1-3.4-1c-1.9,0-3.4,0.4-3.4,1
		c0,0,0,0,0,0c0,0,0,0,0,0l0.2,2.9C2.9,4.6,3,5,3.3,5.4C2.3,5.6,1.5,6,1.5,6.6C1.5,8,5.6,8,6.1,8L6.1,8z M9.3,4.1l0.1-1.3h0.4
		c0.3,0,0.4,0.3,0.3,0.4l-0.1,1.1c0,0.2-0.2,0.3-0.4,0.3c-0.1,0-0.4,0-0.4,0C9.3,4.4,9.3,4.3,9.3,4.1L9.3,4.1z M6.1,0.9
		c1.2,0,2.3,0.2,2.3,0.5c0,0.3-1,0.5-2.3,0.5S3.8,1.6,3.8,1.4C3.8,1.1,4.8,0.9,6.1,0.9L6.1,0.9z M3.9,6c0.5,0.5,1.2,0.7,1.9,0.7h0.5
		c0.7,0,1.4-0.2,1.9-0.7c0.8,0.1,1.4,0.4,1.5,0.5C9.5,6.8,8.2,7.2,6.1,7.2C4,7.2,2.6,6.8,2.3,6.5C2.5,6.4,3,6.2,3.9,6L3.9,6z M3.9,6
		"/>
</g>
</svg>
