<?xml version="1.0" encoding="utf-8"?>
<!-- Generator: Adobe Illustrator 22.1.0, SVG Export Plug-In . SVG Version: 6.00 Build 0)  -->
<svg version="1.1" id="Слой_1" xmlns="http://www.w3.org/2000/svg" xmlns:xlink="http://www.w3.org/1999/xlink" x="0px" y="0px"
	 viewBox="0 0 75.2 71.1" style="enable-background:new 0 0 75.2 71.1;" xml:space="preserve">
<style type="text/css">
	.st0{fill:#1B5870;}
	.st1{fill:#CDCDCE;}
	.st2{fill:#2D8EAF;}
	.st3{fill:none;}
	.st4{fill:#FFFFFF;}
	.st5{font-family:'GillSans-Light';}
	.st6{font-size:3.9607px;}
	.st7{fill:#FFC10D;}
	.st8{fill:#BABB33;}
	.st9{fill:#9F4D23;}
	.st10{fill:#D0D63C;}
</style>
<g>
	<path class="st0" d="M55.4,68.6V11.5c0-3.1-2.5-5.6-5.6-5.6H23.4c-3.1,0-5.6,2.5-5.6,5.6v57.1H55.4z"/>
	<g>
		<g>
			<g>
				<rect x="21.7" y="11.5" class="st1" width="6.4" height="8.3"/>
				<rect x="29.5" y="11.5" class="st1" width="6.4" height="8.3"/>
				<rect x="37.2" y="11.5" class="st1" width="6.4" height="8.3"/>
				<rect x="45" y="11.5" class="st1" width="6.4" height="8.3"/>
			</g>
			<g>
				<rect x="21.7" y="21" class="st1" width="6.4" height="8.3"/>
				<rect x="29.5" y="21" class="st1" width="6.4" height="8.3"/>
				<rect x="37.2" y="21" class="st1" width="6.4" height="8.3"/>
				<rect x="45" y="21" class="st1" width="6.4" height="8.3"/>
			</g>
			<g>
				<rect x="21.7" y="30.6" class="st1" width="6.4" height="8.3"/>
				<rect x="29.5" y="30.6" class="st1" width="6.4" height="8.3"/>
				<rect x="37.2" y="30.6" class="st1" width="6.4" height="8.3"/>
				<rect x="45" y="30.6" class="st1" width="6.4" height="8.3"/>
			</g>
		</g>
		<rect x="21.7" y="41" class="st1" width="29.8" height="4.7"/>
	</g>
	<g>
		<g>
			<rect x="28.1" y="52.7" class="st1" width="8" height="13.5"/>
			<rect x="37.1" y="52.7" class="st1" width="8" height="13.5"/>
		</g>
	</g>
	<rect x="15.7" y="47.9" class="st2" width="41.7" height="2.3"/>
	<path class="st1" d="M49.8,5.9h-2.4v62.8h8V11.5C55.4,8.4,52.9,5.9,49.8,5.9z"/>
	<rect x="24.9" y="1.5" class="st2" width="23.3" height="7.5"/>
	<rect x="24.7" y="2.5" class="st3" width="23.6" height="3.9"/>
	<text transform="matrix(1 0 0 1 30.9465 5.294)" class="st4 st5 st6">HOTEL</text>
	<g>
		<path class="st7" d="M28.6,6.4 M28.6,6.4L28.8,7L29.4,7c0,0,0.1,0.1,0,0.1L29,7.5l0.1,0.6c0,0,0,0.1-0.1,0.1l-0.5-0.3l-0.5,0.3
			c0,0-0.1,0-0.1-0.1l0.1-0.6l-0.4-0.4c0,0,0-0.1,0-0.1L28.3,7L28.6,6.4C28.5,6.4,28.6,6.4,28.6,6.4L28.6,6.4z"/>
		<path class="st7" d="M32.6,6.4 M32.6,6.4L32.8,7L33.4,7c0,0,0.1,0.1,0,0.1L33,7.5l0.1,0.6c0,0,0,0.1-0.1,0.1l-0.5-0.3l-0.5,0.3
			c0,0-0.1,0-0.1-0.1l0.1-0.6l-0.4-0.4c0,0,0-0.1,0-0.1L32.3,7L32.6,6.4C32.5,6.4,32.6,6.4,32.6,6.4L32.6,6.4z"/>
		<path class="st7" d="M36.6,6.4 M36.6,6.4L36.8,7L37.4,7c0,0,0.1,0.1,0,0.1L37,7.5l0.1,0.6c0,0,0,0.1-0.1,0.1l-0.5-0.3l-0.5,0.3
			c0,0-0.1,0-0.1-0.1l0.1-0.6l-0.4-0.4c0,0,0-0.1,0-0.1L36.3,7L36.6,6.4C36.5,6.4,36.6,6.4,36.6,6.4L36.6,6.4z"/>
		<path class="st7" d="M40.6,6.4 M40.6,6.4L40.8,7L41.4,7c0,0,0.1,0.1,0,0.1L41,7.5l0.1,0.6c0,0,0,0.1-0.1,0.1l-0.5-0.3l-0.5,0.3
			c0,0-0.1,0-0.1-0.1l0.1-0.6l-0.4-0.4c0,0,0-0.1,0-0.1L40.3,7L40.6,6.4C40.5,6.4,40.6,6.4,40.6,6.4L40.6,6.4z"/>
		<path class="st7" d="M44.6,6.4 M44.6,6.4L44.8,7L45.4,7c0,0,0.1,0.1,0,0.1L45,7.5l0.1,0.6c0,0,0,0.1-0.1,0.1l-0.5-0.3l-0.5,0.3
			c0,0-0.1,0-0.1-0.1l0.1-0.6l-0.4-0.4c0,0,0-0.1,0-0.1L44.3,7L44.6,6.4C44.5,6.4,44.6,6.4,44.6,6.4L44.6,6.4z"/>
	</g>
	<path class="st8" d="M72.9,71.1c-0.1-2.7-2.3-4.9-5-4.9H5.2c-2.7,0-5,2.2-5,4.9H72.9z"/>
	<g>
		<g>
			<rect x="60.5" y="62.6" class="st9" width="1.4" height="4.3"/>
			<g>
				<path class="st8" d="M65,58.5c0,2.7-1.7,4.8-3.8,4.8c-2.1,0-3.8-2.2-3.8-4.8c0-2.7,3.3-29.9,3.8-29.9C61.7,28.7,65,55.9,65,58.5
					z"/>
				<path class="st10" d="M65,58.5c0,2.7-1.7,4.8-3.8,4.8c-2.1,0-1.9-2.2-1.9-4.8c0-2.7,1.4-29.9,1.9-29.9
					C61.7,28.7,65,55.9,65,58.5z"/>
			</g>
		</g>
		<g>
			<rect x="11.2" y="62.6" class="st9" width="1.4" height="4.3"/>
			<g>
				<path class="st8" d="M15.7,58.5c0,2.7-1.7,4.8-3.8,4.8c-2.1,0-3.8-2.2-3.8-4.8c0-2.7,3.3-29.9,3.8-29.9
					C12.4,28.7,15.7,55.9,15.7,58.5z"/>
				<path class="st10" d="M15.7,58.5c0,2.7-1.7,4.8-3.8,4.8c-2.1,0-1.9-2.2-1.9-4.8c0-2.7,1.4-29.9,1.9-29.9
					C12.4,28.7,15.7,55.9,15.7,58.5z"/>
			</g>
		</g>
	</g>
</g>
</svg>
