<?xml version="1.0" encoding="utf-8"?>
<svg xmlns="http://www.w3.org/2000/svg"
	xmlns:xlink="http://www.w3.org/1999/xlink"
	width="31px" height="31px" viewBox="0 0 31 31">
<path fillRule="evenodd" d="M 15.5 31C 24.06 31 31 24.06 31 15.5 31 6.94 24.06-0 15.5-0 6.94-0-0 6.94-0 15.5-0 24.06 6.94 31 15.5 31ZM 15.5 1.03C 23.63 1.03 29.97 7.37 29.97 15.5 29.97 23.63 23.63 29.96 15.5 29.96 7.54 29.96 1.32 23.89 1.06 16.01 1.06 16.01 19.36 16.01 19.36 16.01 19.36 16.01 15.55 19.8 15.55 19.8 15.35 20 15.35 20.32 15.55 20.52 15.75 20.72 16.08 20.72 16.28 20.52 16.28 20.52 21.03 15.81 21.03 15.81 21.03 15.81 21.03 15.81 21.03 15.81 21.03 15.81 21.03 15.81 21.03 15.81 21.13 15.71 21.18 15.58 21.18 15.45 21.18 15.32 21.13 15.19 21.03 15.09 21.02 15.08 21.01 15.08 21.01 15.08 21.01 15.08 16.36 10.47 16.36 10.47 16.16 10.28 15.84 10.28 15.64 10.47 15.44 10.67 15.44 10.99 15.64 11.18 15.64 11.18 19.47 14.98 19.47 14.98 19.47 14.98 1.06 14.98 1.06 14.98 1.32 7.1 7.54 1.03 15.5 1.03Z" fill="rgb(3,181,231)"/></svg>