<?xml version="1.0" encoding="utf-8"?>
<svg xmlns="http://www.w3.org/2000/svg"
	xmlns:xlink="http://www.w3.org/1999/xlink"
	width="16px" height="16px" viewBox="0 0 16 16">
<filter filterUnits="objectBoundingBox" x="0.00" y="0.00" width="100.00" height="100.00" id="filter0">
<feFlood flood-color="rgb(3,181,231)" result="coFloodOut1"/>
<feComposite in="coFloodOut1" in2="SourceAlpha" operator="in" result="coOverlay1"/>
<feBlend in="coOverlay1" in2="SourceGraphic" mode="normal" result="colorOverlay1"/>
</filter>
<path fillRule="evenodd" d="M 8 16C 3.58 16-0 12.42-0 8-0 3.58 3.58-0 8-0 12.42-0 16 3.58 16 8 16 12.42 12.42 16 8 16ZM 8 2C 4.69 2 2 4.69 2 8 2 11.31 4.69 14 8 14 11.31 14 14 11.31 14 8 14 4.69 11.31 2 8 2ZM 8 10C 6.9 10 6 9.1 6 8 6 6.9 6.9 6 8 6 9.1 6 10 6.9 10 8 10 9.1 9.1 10 8 10Z" fill="rgb(43,142,179)" filter="url(#filter0)"/></svg>