<?xml version="1.0" encoding="utf-8"?>
<svg xmlns="http://www.w3.org/2000/svg"
	xmlns:xlink="http://www.w3.org/1999/xlink"
	width="20px" height="20px" viewBox="0 0 20 20">
<path fillRule="evenodd" d="M 0 9.29C 0 9.29 10.78 20.01 10.78 20.01 10.78 20.01 20 0.01 20 0.01 20 0.01 0 9.29 0 9.29ZM 10.16 16.58C 10.16 16.58 8.59 14.87 8.59 14.87 8.59 14.87 11.71 8.27 11.71 8.27 11.71 8.27 5.08 11.37 5.08 11.37 5.08 11.37 3.51 9.89 3.51 9.89 3.51 9.89 15.95 4.1 15.95 4.1 15.95 4.1 10.16 16.58 10.16 16.58Z" fill="rgb(158,158,158)" opacity="0.70"/></svg>