<?xml version="1.0" encoding="utf-8"?>
<svg xmlns="http://www.w3.org/2000/svg"
	xmlns:xlink="http://www.w3.org/1999/xlink"
	width="21px" height="21px" viewBox="0 0 21 21">
<path fillRule="evenodd" d="M 19.6 21C 19.6 21 1.44 21 1.44 21 0.66 21-0 20.36-0 19.56-0 19.56-0 2.87-0 2.87-0 2.07 0.62 1.43 1.4 1.43 1.4 1.43 3.73 1.43 3.73 1.43 3.73 1.43 3.73 0.48 3.73 0.48 3.73 0.21 3.94-0 4.2-0 4.46-0 4.67 0.21 4.67 0.48 4.67 0.48 4.67 1.43 4.67 1.43 4.67 1.43 10.27 1.43 10.27 1.43 10.27 1.43 10.27 0.48 10.27 0.48 10.27 0.21 10.48-0 10.73-0 10.99-0 11.2 0.21 11.2 0.48 11.2 0.48 11.2 1.43 11.2 1.43 11.2 1.43 16.8 1.43 16.8 1.43 16.8 1.43 16.8 0.48 16.8 0.48 16.8 0.21 17.01-0 17.27-0 17.52-0 17.73 0.21 17.73 0.48 17.73 0.48 17.73 1.43 17.73 1.43 17.73 1.43 19.56 1.43 19.56 1.43 20.34 1.43 21 2.07 21 2.87 21 2.87 21 19.56 21 19.56 21 20.36 20.38 21 19.6 21ZM 20.07 2.87C 20.07 2.6 19.85 2.38 19.58 2.38 19.58 2.38 17.73 2.38 17.73 2.38 17.73 2.38 17.73 3.34 17.73 3.34 17.73 3.6 17.52 3.82 17.27 3.82 17.01 3.82 16.8 3.6 16.8 3.34 16.8 3.34 16.8 2.38 16.8 2.38 16.8 2.38 11.2 2.38 11.2 2.38 11.2 2.38 11.2 3.34 11.2 3.34 11.2 3.6 10.99 3.82 10.73 3.82 10.48 3.82 10.27 3.6 10.27 3.34 10.27 3.34 10.27 2.38 10.27 2.38 10.27 2.38 4.67 2.38 4.67 2.38 4.67 2.38 4.67 3.34 4.67 3.34 4.67 3.6 4.46 3.82 4.2 3.82 3.94 3.82 3.73 3.6 3.73 3.34 3.73 3.34 3.73 2.38 3.73 2.38 3.73 2.38 1.42 2.38 1.42 2.38 1.15 2.38 0.93 2.6 0.93 2.87 0.93 2.87 0.93 7.31 0.93 7.31 0.93 7.31 20.07 7.31 20.07 7.31 20.07 7.31 20.07 2.87 20.07 2.87ZM 20.07 8.27C 20.07 8.27 0.93 8.27 0.93 8.27 0.93 8.27 0.93 19.56 0.93 19.56 0.93 19.83 1.15 20.06 1.42 20.06 1.42 20.06 19.58 20.06 19.58 20.06 19.85 20.06 20.07 19.83 20.07 19.56 20.07 19.56 20.07 8.27 20.07 8.27Z" fill="rgb(154,165,168)"/></svg>