<?xml version="1.0" encoding="utf-8"?>
<svg xmlns="http://www.w3.org/2000/svg"
	xmlns:xlink="http://www.w3.org/1999/xlink"
	width="16px" height="20px" viewBox="0 0 16 20">
<path fillRule="evenodd" d="M 1.99 0.01C 0.89 0.01-0.01 1.01-0.01 2.11-0.01 2.11-0.01 10.07-0.01 10.07-0.01 10.07-0.01 14.05-0.01 14.05-0.01 15.15 0.89 15.94 1.99 15.94 1.99 15.94 4.35 15.94 4.35 15.94 4.35 15.94 3.31 18.54 3.31 18.54 3.06 19.04 2.99 19.67 3.99 19.9 3.99 19.9 3.99 19.92 3.99 19.92 3.99 20.15 4.86 19.89 5.1 19.41 5.1 19.41 6.58 15.94 6.58 15.94 6.58 15.94 9.45 15.94 9.45 15.94 9.45 15.94 11.46 19.42 11.46 19.42 11.7 19.9 12 20.13 13 19.9 13 19.9 13 19.92 13 19.92 13 19.68 13.5 19.02 13.24 18.52 13.24 18.52 11.69 15.94 11.69 15.94 11.69 15.94 14 15.94 14 15.94 15.11 15.94 16 15.15 16 14.05 16 14.05 16 10.07 16 10.07 16 10.07 16 2.11 16 2.11 16 1.01 15.11 0.01 14 0.01 14 0.01 1.99 0.01 1.99 0.01ZM 3 14.05C 3 14.05 2.98 14.05 2.98 14.05 2.44 14.05 1.99 13.61 1.99 13.06 1.99 13.06 1.99 13.06 1.99 13.06 1.99 12.52 2.44 12.08 2.98 12.08 2.98 12.08 3 12.08 3 12.08 3.55 12.08 3.99 12.52 3.99 13.06 3.99 13.06 3.99 13.06 3.99 13.06 3.99 13.61 3.55 14.05 3 14.05ZM 11.98 13.06C 11.98 13.06 11.98 13.05 11.98 13.05 11.98 12.5 12.43 12.06 12.98 12.06 12.98 12.06 12.99 12.06 12.99 12.06 13.54 12.06 13.98 12.5 13.98 13.05 13.98 13.05 13.98 13.06 13.98 13.06 13.98 13.61 13.54 14.05 12.99 14.05 12.99 14.05 12.98 14.05 12.98 14.05 12.43 14.05 11.98 13.61 11.98 13.06ZM 1.99 9.97C 1.99 9.97 1.99 3.1 1.99 3.1 1.99 2.55 2.44 2 2.99 2 2.99 2 13 2 13 2 13.55 2 14 2.55 14 3.1 14 3.1 14 9.97 14 9.97 14 9.97 1.99 9.97 1.99 9.97Z" fill="rgb(3,181,231)"/></svg>