<?xml version="1.0" encoding="utf-8"?>
<svg xmlns="http://www.w3.org/2000/svg"
	xmlns:xlink="http://www.w3.org/1999/xlink"
	width="25px" height="25px" viewBox="0 0 25 25">
<path fillRule="evenodd" d="M 12.5 25C 5.61 25-0 19.39-0 12.5-0 5.61 5.61-0 12.5-0 19.39-0 25 5.61 25 12.5 25 19.39 19.39 25 12.5 25ZM 12.5 0.98C 6.15 0.98 0.98 6.15 0.98 12.5 0.98 18.85 6.15 24.02 12.5 24.02 18.85 24.02 24.02 18.85 24.02 12.5 24.02 6.15 18.85 0.98 12.5 0.98ZM 18.47 19.68C 17.82 19.05 16.64 18.5 15.78 18.09 14.97 17.71 14.68 17.57 14.53 17.35 14.23 16.9 14.38 16.04 14.46 15.69 14.46 15.69 14.48 15.61 14.48 15.61 14.48 15.61 14.52 15.54 14.52 15.54 14.78 15.13 15.17 14.32 15.15 13.9 15.15 13.9 15.13 13.55 15.13 13.55 15.13 13.55 15.46 13.42 15.46 13.42 15.46 13.42 15.82 13.26 15.97 12.73 16.09 12.28 15.74 12.03 15.74 12.03 15.74 12.03 15.44 11.82 15.44 11.82 15.44 11.82 15.55 11.47 15.55 11.47 15.56 11.45 16.27 9.26 15.55 7.95 15.31 7.5 14.93 7.21 14.38 7.06 14.38 7.06 14.28 7.03 14.28 7.03 12.26 6.01 10.63 6.18 9.69 7.53 9.66 7.58 9.64 7.61 9.61 7.64 9.38 7.94 8.79 8.72 9.41 11.56 9.41 11.56 9.49 11.9 9.49 11.9 9.49 11.9 9.19 12.08 9.19 12.08 9.13 12.12 8.84 12.35 9.01 12.92 9.22 13.56 9.56 13.65 9.58 13.65 9.58 13.65 9.99 13.74 9.99 13.74 9.99 13.74 9.98 14.17 9.98 14.17 9.96 14.56 10.35 15.13 10.54 15.34 10.54 15.34 10.59 15.4 10.59 15.4 10.59 15.4 10.63 15.48 10.63 15.48 10.67 15.58 11.03 16.49 10.82 17.24 10.68 17.74 10 18.06 8.38 18.73 7.74 19 6.77 19.4 6.6 19.58 6.52 19.75 6.36 19.84 6.19 19.84 6.11 19.84 6.03 19.82 5.95 19.78 5.71 19.66 5.63 19.34 5.75 19.1 5.95 18.7 6.56 18.42 8 17.83 8.63 17.57 9.66 17.14 9.89 16.92 9.95 16.6 9.82 16.14 9.75 15.92 9.57 15.71 9.13 15.13 9.02 14.48 8.72 14.31 8.31 13.96 8.08 13.21 7.82 12.4 8.1 11.81 8.4 11.48 7.78 8.42 8.51 7.46 8.83 7.05 8.83 7.05 8.88 6.99 8.88 6.99 9.47 6.14 11.19 4.39 14.68 6.13 15.47 6.35 16.05 6.8 16.42 7.48 17.16 8.85 16.77 10.74 16.57 11.47 16.85 11.8 17.1 12.33 16.91 13 16.73 13.63 16.37 13.98 16.11 14.17 16.02 14.88 15.56 15.71 15.4 15.98 15.34 16.28 15.32 16.63 15.35 16.78 15.49 16.87 15.88 17.05 16.2 17.2 17.12 17.64 18.38 18.23 19.15 18.97 19.35 19.16 19.35 19.47 19.16 19.66 18.98 19.86 18.67 19.87 18.47 19.68Z" fill="rgb(255,255,255)"/></svg>