<?xml version="1.0" encoding="utf-8"?>
<!-- Generator: Adobe Illustrator 22.1.0, SVG Export Plug-In . SVG Version: 6.00 Build 0)  -->
<svg version="1.1" id="Слой_1" xmlns="http://www.w3.org/2000/svg" xmlns:xlink="http://www.w3.org/1999/xlink" x="0px" y="0px"
	 viewBox="0 0 168.3 63.4" style="enable-background:new 0 0 168.3 63.4;" xml:space="preserve">
<style type="text/css">
	.st0{fill-rule:evenodd;clip-rule:evenodd;fill:#85BDE7;}
	.st1{fill-rule:evenodd;clip-rule:evenodd;fill:#67A3CE;}
	.st2{fill-rule:evenodd;clip-rule:evenodd;fill:#A9D2ED;}
	.st3{fill-rule:evenodd;clip-rule:evenodd;fill:#455E76;}
	.st4{fill:#00ADEE;}
	.st5{fill:#1B5870;}
</style>
<g>
	<path class="st0" d="M90.2,49.6l-11.6,0.3c-0.5,0-0.9,0.4-0.9,1l0,0c0,0.5,0.4,0.9,1,0.9l11.6-0.3c0.5,0,0.9-0.4,0.9-1l0,0
		C91.2,50,90.7,49.6,90.2,49.6z"/>
	<path class="st0" d="M128,48.5l-11.6,0.3c-0.5,0-0.9,0.4-0.9,1l0,0c0,0.5,0.4,0.9,1,0.9l11.6-0.3c0.5,0,0.9-0.4,0.9-1l0,0
		C128.9,48.9,128.5,48.4,128,48.5z"/>
	<path class="st0" d="M20.7,35.8l-8.7-34l6.4,0.1l20.3,23c1.9,2.2,4.3,3.7,7.3,4.5l14.2,3.9l-27.4,4.3L20.7,35.8z"/>
	<path class="st1" d="M20.7,35.8l-8.7-34l4.2,0l17.6,26.5c3.4,4,9.2,6,13.8,6.9l-25.4,3.1L20.7,35.8z"/>
	<path class="st2" d="M137.2,49.3l-83.1,2.2C19.4,48,15.4,42.7,16.7,36l42.2-2.6c0,0,59.6-0.3,65.5-0.2c5.9,0.1,10.3,0.1,16.1,1.4
		c5.7,1.3,6.7,2.3,8,4.1c6.1,2.2,7.3,4.2,1.8,6.9C146.5,47.6,142.2,49,137.2,49.3z"/>
	<path class="st3" d="M148.5,38.7l-2.8,1.1c-1-0.6-1.7-1.2-1.9-2l3.3-0.8C147.6,37.5,148.1,38.2,148.5,38.7z"/>
	<path class="st3" d="M125.5,39l-0.7,0c-0.5,0-0.8,0.4-0.8,0.9l0,1.7c0,0.5,0.4,0.8,0.8,0.8l0.7,0c0.5,0,0.8-0.4,0.8-0.8l0-1.7
		C126.4,39.3,126,39,125.5,39z"/>
	<path class="st3" d="M122,39.1l-0.7,0c-0.5,0-0.8,0.4-0.8,0.8l0,1.7c0,0.5,0.4,0.8,0.8,0.8l0.7,0c0.5,0,0.8-0.4,0.8-0.9l0-1.7
		C122.8,39.4,122.4,39.1,122,39.1z"/>
	<path class="st3" d="M118.4,39.2l-0.7,0c-0.5,0-0.8,0.4-0.8,0.8l0,1.7c0,0.5,0.4,0.8,0.8,0.8l0.7,0c0.5,0,0.8-0.4,0.8-0.8l0-1.7
		C119.3,39.5,118.9,39.2,118.4,39.2z"/>
	<path class="st3" d="M114.9,39.3l-0.7,0c-0.5,0-0.8,0.4-0.8,0.8l0,1.7c0,0.5,0.4,0.8,0.8,0.8l0.7,0c0.5,0,0.8-0.4,0.8-0.8l0-1.7
		C115.7,39.6,115.3,39.3,114.9,39.3z"/>
	<path class="st3" d="M111.3,39.4l-0.7,0c-0.5,0-0.8,0.4-0.8,0.8l0,1.7c0,0.5,0.4,0.8,0.8,0.8l0.7,0c0.5,0,0.8-0.4,0.8-0.9l0-1.7
		C112.2,39.7,111.8,39.3,111.3,39.4z"/>
	<path class="st1" d="M89.1,47.6l-34.4,0.7c-5.9-0.5-16.2-2-14.8-2L87.2,45L89.1,47.6z"/>
	<path class="st1" d="M107.4,46.1L93.7,47c-1,0.1-1.9,0.9-1.8,1.9l0.1,3.7c0,1,0.9,1.8,1.9,1.8l13.7,0.3c1,0,1.9-0.9,1.8-1.9
		l-0.1-4.9C109.3,46.9,108.5,46.1,107.4,46.1z"/>
	<polygon class="st3" points="94.5,46.9 93.7,47 93.6,47 93.8,54.5 93.9,54.5 94.7,54.5 	"/>
	<polygon class="st3" points="106.8,46.2 106,46.2 106.2,54.7 107,54.8 	"/>
	<path class="st3" d="M107.7,39.5l-0.7,0c-0.5,0-0.8,0.4-0.8,0.8l0,1.7c0,0.5,0.4,0.8,0.8,0.8l0.7,0c0.5,0,0.8-0.4,0.8-0.9l0-1.7
		C108.6,39.8,108.2,39.4,107.7,39.5z"/>
	<path class="st3" d="M104.2,39.5l-0.7,0c-0.5,0-0.8,0.4-0.8,0.8l0,1.7c0,0.5,0.4,0.8,0.9,0.8l0.7,0c0.5,0,0.8-0.4,0.8-0.8l0-1.7
		C105,39.9,104.6,39.5,104.2,39.5z"/>
	<path class="st3" d="M100.6,39.6l-0.7,0c-0.5,0-0.8,0.4-0.8,0.8l0,1.7c0,0.5,0.4,0.8,0.8,0.8l0.7,0c0.5,0,0.8-0.4,0.8-0.8l0-1.7
		C101.5,40,101.1,39.6,100.6,39.6z"/>
	<path class="st3" d="M97.1,39.7l-0.7,0c-0.5,0-0.8,0.4-0.8,0.9l0,1.7c0,0.5,0.4,0.8,0.8,0.8l0.7,0c0.5,0,0.8-0.4,0.8-0.8l0-1.7
		C97.9,40.1,97.5,39.7,97.1,39.7z"/>
	<path class="st3" d="M93.5,39.8l-0.7,0c-0.5,0-0.8,0.4-0.8,0.8l0,1.7c0,0.5,0.4,0.8,0.8,0.8l0.7,0c0.5,0,0.8-0.4,0.8-0.8l0-1.7
		C94.4,40.2,94,39.8,93.5,39.8z"/>
	<path class="st3" d="M90,39.9l-0.7,0c-0.5,0-0.8,0.4-0.8,0.8l0,1.7c0,0.5,0.4,0.8,0.8,0.8l0.7,0c0.5,0,0.8-0.4,0.8-0.9l0-1.7
		C90.8,40.3,90.4,39.9,90,39.9z"/>
	<path class="st3" d="M129.1,38.9l-0.7,0c-0.5,0-0.8,0.4-0.8,0.8l0,1.7c0,0.5,0.4,0.8,0.8,0.8l0.7,0c0.5,0,0.8-0.4,0.8-0.8l0-1.7
		C129.9,39.2,129.5,38.9,129.1,38.9z"/>
	<path class="st3" d="M132.6,38.8l-0.7,0c-0.5,0-0.8,0.4-0.8,0.8l0,1.7c0,0.5,0.4,0.8,0.8,0.8l0.7,0c0.5,0,0.8-0.4,0.8-0.8l0-1.7
		C133.5,39.2,133.1,38.8,132.6,38.8z"/>
	<g>
		<path class="st3" d="M78,40.2l-0.7,0c-0.5,0-0.8,0.4-0.8,0.8l0,1.7c0,0.5,0.4,0.8,0.9,0.8l0.7,0c0.5,0,0.8-0.4,0.8-0.9l0-1.7
			C78.8,40.6,78.4,40.2,78,40.2z"/>
		<path class="st3" d="M74.4,40.3l-0.7,0c-0.5,0-0.8,0.4-0.8,0.8l0,1.7c0,0.5,0.4,0.8,0.8,0.8l0.7,0c0.5,0,0.8-0.4,0.8-0.8l0-1.7
			C75.2,40.7,74.9,40.3,74.4,40.3z"/>
		<path class="st3" d="M70.9,40.4l-0.7,0c-0.5,0-0.8,0.4-0.8,0.8l0,1.7c0,0.5,0.4,0.8,0.8,0.8l0.7,0c0.5,0,0.8-0.4,0.8-0.8l0-1.7
			C71.7,40.8,71.3,40.4,70.9,40.4z"/>
		<path class="st3" d="M67.2,40.5l-0.7,0c-0.5,0-0.8,0.4-0.8,0.8l0,1.7c0,0.5,0.4,0.8,0.8,0.8l0.7,0c0.5,0,0.8-0.4,0.8-0.9l0-1.7
			C68.1,40.9,67.7,40.5,67.2,40.5z"/>
		<path class="st3" d="M63.7,40.6l-0.7,0c-0.5,0-0.8,0.4-0.8,0.8l0,1.7c0,0.5,0.4,0.8,0.8,0.8l0.7,0c0.5,0,0.8-0.4,0.8-0.8l0-1.7
			C64.5,41,64.1,40.6,63.7,40.6z"/>
		<path class="st3" d="M60.1,40.7l-0.7,0c-0.5,0-0.8,0.4-0.8,0.8l0,1.7c0,0.5,0.4,0.8,0.8,0.8l0.7,0c0.5,0,0.8-0.4,0.8-0.8l0-1.7
			C61,41,60.6,40.7,60.1,40.7z"/>
	</g>
	<path class="st0" d="M121.2,47.2l-4.8-1.4l-21.8-2.8c-2.5,0.1-12.8-7.8-17.3-15.4l-2.7,0.1L81.2,42c1.4,3,3.3,4.9,5.8,5.7l16.7-0.1
		L121.2,47.2z"/>
	<path class="st3" d="M60.1,40.7l-0.7,0c-0.5,0-0.8,0.4-0.8,0.8l0,1.7c0,0.5,0.4,0.8,0.8,0.8l0.7,0c0.5,0,0.8-0.4,0.8-0.8l0-1.7
		C61,41,60.6,40.7,60.1,40.7z"/>
	<path class="st3" d="M56.6,40.8l-0.7,0c-0.5,0-0.8,0.4-0.8,0.8l0,1.7c0,0.5,0.4,0.8,0.8,0.8l0.7,0c0.5,0,0.8-0.4,0.8-0.8l0-1.7
		C57.4,41.1,57,40.8,56.6,40.8z"/>
	<path class="st3" d="M53,40.9l-0.7,0c-0.5,0-0.8,0.4-0.8,0.9l0,1.7c0,0.5,0.4,0.8,0.8,0.8l0.7,0c0.5,0,0.8-0.4,0.8-0.8l0-1.7
		C53.9,41.2,53.5,40.9,53,40.9z"/>
	<path class="st3" d="M49.4,41l-0.7,0c-0.5,0-0.8,0.4-0.8,0.9l0,1.7c0,0.5,0.4,0.8,0.8,0.8l0.7,0c0.5,0,0.8-0.4,0.8-0.8l0-1.7
		C50.3,41.3,49.9,41,49.4,41z"/>
</g>
<path class="st4" d="M1.5,48.3c0-2.2,2.1-4,4.9-4.2c0.2-2.2,2.5-4,5.4-4c1.3,0,2.6,0.4,3.5,1c0.9-1.4,2.7-2.3,4.8-2.3
	c3,0,5.4,1.9,5.4,4.2c0,0.4-0.1,0.7-0.2,1.1c2.8,0.2,5,2,5,4.2c0,2.2-2.1,4-4.8,4.2v0h-0.3c-0.1,0-0.2,0-0.3,0c-0.1,0-0.2,0-0.3,0
	H6.6v0C3.8,52.3,1.5,50.5,1.5,48.3z"/>
<g>
	<path class="st4" d="M155,57.9c0-1.8-1.7-3.3-4-3.4c-0.1-1.8-2.1-3.3-4.4-3.3c-1.1,0-2.1,0.3-2.9,0.8c-0.7-1.1-2.2-1.9-3.9-1.9
		c-2.4,0-4.4,1.5-4.4,3.5c0,0.3,0.1,0.6,0.1,0.9c-2.3,0.1-4.1,1.6-4.1,3.4c0,1.8,1.7,3.2,3.9,3.4v0h0.2c0.1,0,0.2,0,0.2,0
		c0.1,0,0.2,0,0.3,0h14.8v0C153.2,61.2,155,59.7,155,57.9z"/>
	<path class="st5" d="M165.6,58.8c0-1.3-1.3-2.4-3-2.6c-0.1-1.4-1.5-2.4-3.3-2.4c-0.8,0-1.5,0.2-2.1,0.6c-0.5-0.8-1.7-1.4-2.9-1.4
		c-1.8,0-3.3,1.2-3.3,2.6c0,0.2,0,0.4,0.1,0.7c-1.7,0.1-3,1.2-3,2.6c0,1.3,1.3,2.4,2.9,2.6v0h0.2c0.1,0,0.1,0,0.2,0
		c0.1,0,0.1,0,0.2,0h11v0C164.2,61.3,165.6,60.2,165.6,58.8z"/>
</g>
</svg>
