<?xml version="1.0" encoding="utf-8"?>
<!-- Generator: Adobe Illustrator 22.1.0, SVG Export Plug-In . SVG Version: 6.00 Build 0)  -->
<svg version="1.1" id="Слой_1" xmlns="http://www.w3.org/2000/svg" xmlns:xlink="http://www.w3.org/1999/xlink" x="0px" y="0px"
	 viewBox="0 0 169.9 71.1" style="enable-background:new 0 0 169.9 71.1;" xml:space="preserve">
<style type="text/css">
	.st0{fill-rule:evenodd;clip-rule:evenodd;fill:#85BDE7;}
	.st1{fill-rule:evenodd;clip-rule:evenodd;fill:#67A3CE;}
	.st2{fill-rule:evenodd;clip-rule:evenodd;fill:#A9D2ED;}
	.st3{fill-rule:evenodd;clip-rule:evenodd;fill:#455E76;}
	.st4{fill:#00ADEE;}
	.st5{fill:#1B5870;}
</style>
<g>
	<path class="st0" d="M90.1,62.5l11.6,0.3c0.5,0,0.9,0.4,0.9,1l0,0c0,0.5-0.4,0.9-1,0.9l-11.6-0.3c-0.5,0-0.9-0.4-0.9-1l0,0
		C89.2,62.9,89.6,62.4,90.1,62.5z"/>
	<path class="st0" d="M52.4,61.3L64,61.6c0.5,0,0.9,0.4,0.9,1l0,0c0,0.5-0.4,0.9-1,0.9l-11.6-0.3c-0.5,0-0.9-0.4-0.9-1l0,0
		C51.4,61.7,51.8,61.3,52.4,61.3z"/>
	<path class="st0" d="M159.7,48.6l8.7-34l-6.4,0.1l-20.3,23c-1.9,2.2-4.3,3.7-7.3,4.5l-14.2,3.9l27.4,4.3L159.7,48.6z"/>
	<path class="st1" d="M159.7,48.6l8.7-34l-4.2,0l-17.6,26.5c-3.4,4-9.2,6-13.8,6.9l25.4,3.1L159.7,48.6z"/>
	<path class="st2" d="M43.2,62.2l83.1,2.2c34.7-3.6,38.7-8.9,37.4-15.5l-42.2-2.6c0,0-59.6-0.3-65.5-0.2c-5.9,0.1-10.3,0.1-16.1,1.4
		c-5.7,1.3-6.7,2.3-8,4.1c-6.1,2.2-7.3,4.2-1.8,6.9C33.9,60.5,38.2,61.8,43.2,62.2z"/>
	<path class="st3" d="M31.9,51.6l2.8,1.1c1-0.6,1.7-1.2,1.9-2l-3.3-0.8C32.7,50.3,32.2,51.1,31.9,51.6z"/>
	<path class="st3" d="M54.8,51.9l0.7,0c0.5,0,0.8,0.4,0.8,0.8l0,1.7c0,0.5-0.4,0.8-0.8,0.8l-0.7,0c-0.5,0-0.8-0.4-0.8-0.8l0-1.7
		C54,52.2,54.4,51.8,54.8,51.9z"/>
	<path class="st3" d="M58.4,51.9l0.7,0c0.5,0,0.8,0.4,0.8,0.8l0,1.7c0,0.5-0.4,0.8-0.8,0.8l-0.7,0c-0.5,0-0.8-0.4-0.8-0.9l0-1.7
		C57.5,52.3,57.9,51.9,58.4,51.9z"/>
	<path class="st3" d="M61.9,52l0.7,0c0.5,0,0.8,0.4,0.8,0.8l0,1.7c0,0.5-0.4,0.8-0.8,0.8l-0.7,0c-0.5,0-0.8-0.4-0.8-0.8l0-1.7
		C61.1,52.4,61.5,52,61.9,52z"/>
	<path class="st3" d="M65.5,52.1l0.7,0c0.5,0,0.8,0.4,0.8,0.8l0,1.7c0,0.5-0.4,0.8-0.8,0.8l-0.7,0c-0.5,0-0.8-0.4-0.8-0.8l0-1.7
		C64.6,52.5,65,52.1,65.5,52.1z"/>
	<path class="st3" d="M69,52.2l0.7,0c0.5,0,0.8,0.4,0.8,0.8l0,1.7c0,0.5-0.4,0.8-0.8,0.8l-0.7,0c-0.5,0-0.8-0.4-0.8-0.9l0-1.7
		C68.2,52.6,68.6,52.2,69,52.2z"/>
	<path class="st1" d="M91.2,60.4l34.4,0.7c5.9-0.5,16.2-2,14.8-2l-47.2-1.3L91.2,60.4z"/>
	<path class="st1" d="M72.9,59l13.7,0.9c1,0.1,1.9,0.9,1.8,1.9l-0.1,3.7c0,1-0.9,1.8-1.9,1.8l-13.7,0.3c-1,0-1.9-0.9-1.8-1.9
		l0.1-4.9C71,59.8,71.9,58.9,72.9,59z"/>
	<polygon class="st3" points="85.9,59.8 86.6,59.9 86.7,59.9 86.5,67.4 86.4,67.4 85.7,67.4 	"/>
	<polygon class="st3" points="73.5,59 74.4,59.1 74.2,67.6 73.3,67.6 	"/>
	<path class="st3" d="M72.6,52.3l0.7,0c0.5,0,0.8,0.4,0.8,0.8l0,1.7c0,0.5-0.4,0.8-0.8,0.8l-0.7,0c-0.5,0-0.8-0.4-0.8-0.9l0-1.7
		C71.8,52.7,72.2,52.3,72.6,52.3z"/>
	<path class="st3" d="M76.2,52.4l0.7,0c0.5,0,0.8,0.4,0.8,0.8l0,1.7c0,0.5-0.4,0.8-0.8,0.8l-0.7,0c-0.5,0-0.8-0.4-0.8-0.8l0-1.7
		C75.3,52.8,75.7,52.4,76.2,52.4z"/>
	<path class="st3" d="M79.7,52.5l0.7,0c0.5,0,0.8,0.4,0.8,0.8l0,1.7c0,0.5-0.4,0.8-0.8,0.8l-0.7,0c-0.5,0-0.8-0.4-0.8-0.8l0-1.7
		C78.9,52.9,79.3,52.5,79.7,52.5z"/>
	<path class="st3" d="M83.3,52.6l0.7,0c0.5,0,0.8,0.4,0.8,0.8l0,1.7c0,0.5-0.4,0.8-0.8,0.8l-0.7,0c-0.5,0-0.8-0.4-0.8-0.8l0-1.7
		C82.4,52.9,82.8,52.6,83.3,52.6z"/>
	<path class="st3" d="M86.8,52.7l0.7,0c0.5,0,0.8,0.4,0.8,0.8l0,1.7c0,0.5-0.4,0.8-0.8,0.8l-0.7,0c-0.5,0-0.8-0.4-0.8-0.9l0-1.7
		C86,53,86.4,52.7,86.8,52.7z"/>
	<path class="st3" d="M90.4,52.8l0.7,0c0.5,0,0.8,0.4,0.8,0.8l0,1.7c0,0.5-0.4,0.8-0.8,0.8l-0.7,0c-0.5,0-0.8-0.4-0.8-0.9l0-1.7
		C89.5,53.1,89.9,52.8,90.4,52.8z"/>
	<path class="st3" d="M51.3,51.8l0.7,0c0.5,0,0.8,0.4,0.8,0.8l0,1.7c0,0.5-0.4,0.8-0.8,0.8l-0.7,0c-0.5,0-0.8-0.4-0.8-0.8l0-1.7
		C50.4,52.1,50.8,51.7,51.3,51.8z"/>
	<path class="st3" d="M47.7,51.7l0.7,0c0.5,0,0.8,0.4,0.8,0.9l0,1.7c0,0.5-0.4,0.8-0.8,0.8l-0.7,0c-0.5,0-0.8-0.4-0.8-0.8l0-1.7
		C46.9,52,47.3,51.7,47.7,51.7z"/>
	<g>
		<path class="st3" d="M102.4,53.1l0.7,0c0.5,0,0.8,0.4,0.8,0.8l0,1.7c0,0.5-0.4,0.8-0.9,0.8l-0.7,0c-0.5,0-0.8-0.4-0.8-0.9l0-1.7
			C101.6,53.4,101.9,53.1,102.4,53.1z"/>
		<path class="st3" d="M105.9,53.2l0.7,0c0.5,0,0.8,0.4,0.8,0.8l0,1.7c0,0.5-0.4,0.8-0.8,0.8l-0.7,0c-0.5,0-0.8-0.4-0.8-0.8l0-1.7
			C105.1,53.5,105.5,53.2,105.9,53.2z"/>
		<path class="st3" d="M109.5,53.3l0.7,0c0.5,0,0.8,0.4,0.8,0.8l0,1.7c0,0.5-0.4,0.8-0.8,0.8l-0.7,0c-0.5,0-0.8-0.4-0.8-0.8l0-1.7
			C108.7,53.6,109,53.3,109.5,53.3z"/>
		<path class="st3" d="M113.1,53.4l0.7,0c0.5,0,0.8,0.4,0.8,0.8l0,1.7c0,0.5-0.4,0.8-0.8,0.8l-0.7,0c-0.5,0-0.8-0.4-0.8-0.9l0-1.7
			C112.3,53.7,112.6,53.4,113.1,53.4z"/>
		<path class="st3" d="M116.7,53.5l0.7,0c0.5,0,0.8,0.4,0.8,0.8l0,1.7c0,0.5-0.4,0.8-0.8,0.8l-0.7,0c-0.5,0-0.8-0.4-0.8-0.8l0-1.7
			C115.8,53.8,116.2,53.5,116.7,53.5z"/>
		<path class="st3" d="M120.2,53.6l0.7,0c0.5,0,0.8,0.4,0.8,0.8l0,1.7c0,0.5-0.4,0.8-0.8,0.8l-0.7,0c-0.5,0-0.8-0.4-0.8-0.8l0-1.7
			C119.4,53.9,119.7,53.5,120.2,53.6z"/>
	</g>
	<path class="st0" d="M59.2,60l4.8-1.4l21.8-2.8c2.5,0.1,12.8-7.8,17.3-15.4l2.7,0.1l-6.7,14.4c-1.4,3-3.3,4.9-5.8,5.7l-16.7-0.1
		L59.2,60z"/>
	<path class="st3" d="M120.2,53.6l0.7,0c0.5,0,0.8,0.4,0.8,0.8l0,1.7c0,0.5-0.4,0.8-0.8,0.8l-0.7,0c-0.5,0-0.8-0.4-0.8-0.8l0-1.7
		C119.4,53.9,119.7,53.5,120.2,53.6z"/>
	<path class="st3" d="M123.8,53.7l0.7,0c0.5,0,0.8,0.4,0.8,0.8l0,1.7c0,0.5-0.4,0.8-0.8,0.8l-0.7,0c-0.5,0-0.8-0.4-0.8-0.8l0-1.7
		C122.9,54,123.3,53.6,123.8,53.7z"/>
	<path class="st3" d="M127.3,53.7l0.7,0c0.5,0,0.8,0.4,0.8,0.9l0,1.7c0,0.5-0.4,0.8-0.8,0.8l-0.7,0c-0.5,0-0.8-0.4-0.8-0.8l0-1.7
		C126.5,54.1,126.9,53.7,127.3,53.7z"/>
	<path class="st3" d="M130.9,53.8l0.7,0c0.5,0,0.8,0.4,0.8,0.8l0,1.7c0,0.5-0.4,0.8-0.8,0.8l-0.7,0c-0.5,0-0.8-0.4-0.8-0.8l0-1.7
		C130.1,54.2,130.5,53.8,130.9,53.8z"/>
</g>
<path class="st4" d="M1.8,27.7c0-2.2,2.1-4,4.9-4.2c0.2-2.2,2.5-4,5.4-4c1.3,0,2.6,0.4,3.5,1c0.9-1.4,2.7-2.3,4.8-2.3
	c3,0,5.4,1.9,5.4,4.2c0,0.4-0.1,0.7-0.2,1.1c2.8,0.2,5,2,5,4.2c0,2.2-2.1,4-4.8,4.2v0h-0.3c-0.1,0-0.2,0-0.3,0c-0.1,0-0.2,0-0.3,0
	H6.8v0C4,31.8,1.8,29.9,1.8,27.7z"/>
<g>
	<path class="st4" d="M159.3,66.6c0-1.8-1.7-3.3-4-3.4c-0.1-1.8-2.1-3.3-4.4-3.3c-1.1,0-2.1,0.3-2.9,0.8c-0.7-1.1-2.2-1.9-3.9-1.9
		c-2.4,0-4.4,1.5-4.4,3.5c0,0.3,0.1,0.6,0.1,0.9c-2.3,0.1-4.1,1.6-4.1,3.4c0,1.8,1.7,3.2,3.9,3.4v0h0.2c0.1,0,0.2,0,0.2,0
		c0.1,0,0.2,0,0.3,0h14.8v0C157.5,69.9,159.3,68.4,159.3,66.6z"/>
	<path class="st5" d="M169.9,67.5c0-1.3-1.3-2.4-3-2.6c-0.1-1.4-1.5-2.4-3.3-2.4c-0.8,0-1.5,0.2-2.1,0.6c-0.5-0.8-1.7-1.4-2.9-1.4
		c-1.8,0-3.3,1.2-3.3,2.6c0,0.2,0,0.4,0.1,0.7c-1.7,0.1-3,1.2-3,2.6c0,1.3,1.3,2.4,2.9,2.6v0h0.2c0.1,0,0.1,0,0.2,0
		c0.1,0,0.1,0,0.2,0h11v0C168.5,70,169.9,68.9,169.9,67.5z"/>
</g>
</svg>
