<?xml version="1.0" encoding="utf-8"?>
<!-- Generator: Adobe Illustrator 22.1.0, SVG Export Plug-In . SVG Version: 6.00 Build 0)  -->
<svg version="1.1" id="Слой_1" xmlns="http://www.w3.org/2000/svg" xmlns:xlink="http://www.w3.org/1999/xlink" x="0px" y="0px"
	 viewBox="0 0 41.3 130.3" style="enable-background:new 0 0 41.3 130.3;" xml:space="preserve">
<style type="text/css">
	.st0{fill:none;stroke:#1B5870;stroke-miterlimit:10;stroke-dasharray:5,5;}
	.st1{fill:#1B5870;}
</style>
<g>
	<g>
		<g>
			<path class="st0" d="M1.6,1c0,0,60.3,57,4.7,122.5"/>
			<g>
				<polygon class="st1" points="1.6,128.7 5.1,118.6 6.6,123.1 11.2,124 				"/>
			</g>
		</g>
	</g>
</g>
<path class="st1" d="M30.2,72c0.8,0,1.5-0.8,1.5-1.6l-0.2-5.6l8-5.3l-0.1-2l-8.1,2.8l-0.2-5.6l2-1.6l0-1.5l-3.5,1.1l-3.6-0.9l0,1.5
	l2.1,1.5l0.2,5.6L20.1,58l0.1,2l8.3,4.9l0.2,5.6C28.6,71.3,29.4,72,30.2,72L30.2,72z M30.2,72"/>
</svg>
