<?xml version="1.0" encoding="utf-8"?>
<!-- Generator: Adobe Illustrator 22.1.0, SVG Export Plug-In . SVG Version: 6.00 Build 0)  -->
<svg version="1.1" id="Слой_1" xmlns="http://www.w3.org/2000/svg" xmlns:xlink="http://www.w3.org/1999/xlink" x="0px" y="0px"
	 viewBox="0 0 12 7.7" style="enable-background:new 0 0 12 7.7;" xml:space="preserve">
<style type="text/css">
	.st0{display:none;}
	.st1{display:inline;fill:#2D8EAF;}
	.st2{fill:#2D8EAF;}
</style>
<g class="st0">
	<path class="st1" d="M6.1,10.6c-3.2,0-5.8-2.6-5.8-5.8C0.3,1.6,2.9-1,6.1-1c3.2,0,5.8,2.6,5.8,5.8C11.9,8,9.3,10.6,6.1,10.6z
		 M11.2,4.8c0-2.8-2.2-5.1-5-5.1c-2.8,0-5,2.2-5.1,5c0,2.8,2.2,5.1,5,5.1C8.9,9.8,11.2,7.6,11.2,4.8z"/>
	<path class="st1" d="M10.4,4.8c0,2.4-2,4.3-4.3,4.3c-2.3,0-4.3-2-4.2-4.4c0.1-2.4,2-4.2,4.3-4.2C8.6,0.5,10.4,2.5,10.4,4.8z
		 M5.3,5.2C5.3,5.2,5.3,5.2,5.3,5.2c0.3,0,0.6,0,0.8,0c0.1,0,0.1,0,0.2-0.1C6.9,4.5,7.6,4,8.2,3.4c0.2-0.2,0.2-0.3,0-0.6
		C8,2.6,7.9,2.6,7.7,2.8c-0.5,0.5-1.1,1-1.6,1.4C6,4.3,5.9,4.4,5.8,4.4c-0.4,0-0.9,0-1.3,0c-0.2,0-0.4,0.2-0.4,0.4
		c0,0.2,0.1,0.4,0.4,0.4C4.7,5.2,5,5.2,5.3,5.2z M2.8,4.8c0-0.3,0-0.3-0.3-0.3c-0.3,0-0.4,0-0.4,0.3c0,0.4,0,0.4,0.3,0.4
		C2.8,5.1,2.8,5.1,2.8,4.8z M5.8,8.4c0,0.3,0,0.4,0.3,0.4c0.4,0,0.4,0,0.4-0.4c0-0.3,0-0.4-0.3-0.4C5.8,8,5.8,8.1,5.8,8.4z M5.8,1.2
		c0,0.3,0,0.4,0.4,0.4c0.3,0,0.3,0,0.3-0.4c0-0.3,0-0.4-0.4-0.4C5.8,0.8,5.8,0.8,5.8,1.2z M9.5,4.7c0,0.4,0,0.4,0.4,0.4
		c0.2,0,0.2-0.1,0.2-0.4c0-0.2-0.1-0.3-0.4-0.3C9.5,4.4,9.5,4.4,9.5,4.7z"/>
</g>
<g>
	<path class="st2" d="M10.1,3.9h1.1v-1c0-0.2-0.2-0.4-0.4-0.4H4.4c0,0,0,0.1,0.1,0.1c0.1,0.3,0.2,0.6,0.2,1c0,0.1,0,0.2,0,0.3H10.1z
		 M10.1,3.9"/>
	<g>
		<path class="st2" d="M2.2,1.5c0,0-0.1,0-0.1,0v2.4h2.1c0-0.1,0-0.2,0-0.3c0-0.4-0.1-0.8-0.3-1.1C3.6,1.9,2.9,1.5,2.2,1.5L2.2,1.5z
			 M2.2,1.5"/>
		<path class="st2" d="M0.5,7.4h0.8c0.2,0,0.4-0.2,0.4-0.4V5.9h8.5v1.2c0,0.2,0.2,0.4,0.4,0.4h0.8c0.2,0,0.4-0.2,0.4-0.4V4.7
			c0-0.2-0.2-0.4-0.4-0.4H1.6V0.8c0-0.2-0.2-0.4-0.4-0.4H0.5c-0.2,0-0.4,0.2-0.4,0.4v6.2C0.1,7.3,0.3,7.4,0.5,7.4L0.5,7.4z M0.5,7.4
			"/>
	</g>
</g>
</svg>
