<?xml version="1.0" encoding="utf-8"?>
<!-- Generator: Adobe Illustrator 22.1.0, SVG Export Plug-In . SVG Version: 6.00 Build 0)  -->
<svg version="1.1" id="Слой_1" xmlns="http://www.w3.org/2000/svg" xmlns:xlink="http://www.w3.org/1999/xlink" x="0px" y="0px"
	 viewBox="0 0 142.4 71.1" style="enable-background:new 0 0 142.4 71.1;" xml:space="preserve">
<style type="text/css">
	.st0{fill:#57C8E8;}
	.st1{fill:url(#SVGID_1_);}
	.st2{fill:#095984;}
	.st3{fill:#0285C0;}
	.st4{fill:#414141;}
	.st5{fill:#C3C3C3;}
	.st6{fill:#FFFFFF;}
	.st7{fill:#494848;}
	.st8{fill:#D21B60;}
	.st9{fill:#575756;}
	.st10{fill:#00ADEE;}
	.st11{fill:none;}
	.st12{fill:#F2ECCE;}
	.st13{fill:#FCB126;}
	.st14{fill:#D0D63C;}
</style>
<g>
	<path class="st0" d="M141.5,64.2c0,0.8-0.9,2.6-2.2,2.6c-1.4,0-8.8,0-10.1,0c-1.4,0-2.7-0.9-4.6-0.9c-1.9,0-43.1,0-46.4,0
		c-3.4,0-8.4,0-9.6,0c-1.2,0-4.1-0.8-5.4-1.6c-1.3-0.9-1.4-1.1-1.4-1.6c0-0.6,0-2.8,0-3.4c0-0.5,1.5-1.1,1.5-2c0-0.9,0-3.7,0-4.9
		c0-1.3,11.5-9.4,15.1-10.3c3.7-0.9,19.7-1,24-0.6c4.3,0.4,13.5,4.9,19.3,9.2c6.3,0,13,1.6,15.9,3.3c2.9,1.8,3.9,4.8,3.9,6.1
		C141.5,61.3,141.5,64.2,141.5,64.2z"/>
	
		<linearGradient id="SVGID_1_" gradientUnits="userSpaceOnUse" x1="1068.3429" y1="51.933" x2="1068.3429" y2="59.3475" gradientTransform="matrix(-1 0 0 1 1169.9478 0)">
		<stop  offset="0" style="stop-color:#73C9C3"/>
		<stop  offset="1" style="stop-color:#57C8E8"/>
	</linearGradient>
	<path class="st1" d="M140.7,57.4c0.5,1.1,0.8,2.1,0.8,2.7c0,1.3,0,4.2,0,4.2c0,0.8-0.9,2.6-2.2,2.6c-1.4,0-8.8,0-10.1,0
		c-1.4,0-2.7-0.9-4.6-0.9c-1.9,0-43.1,0-46.4,0c-3.4,0-8.4,0-9.6,0c-1.2,0-4.1-0.8-5.4-1.6c-1.3-0.9-1.4-1.1-1.4-1.6
		c0-0.6,0-2.8,0-3.4c0-0.5,1.5-1.1,1.5-2c0-0.8,0-3,0-4.4L140.7,57.4z"/>
	<g>
		<path class="st2" d="M95.9,53.7c-0.6-6.5-1.5-10.3-1.6-10.8c0,0,0.1,0,0.1,0c0.1,0.6,1,4.3,1.6,10.7c0.6,6.4,0.1,10.3,0,10.8h-0.1
			C96,64.1,96.5,60.2,95.9,53.7z"/>
		<path class="st2" d="M118.6,52.8c-0.2-0.2-0.3-0.6-0.2-1.1c0.1-0.6,0.5-1.1,0.9-1.3l0,0.1c-0.3,0.1-0.7,0.6-0.8,1.2
			C118.4,52.2,118.5,52.5,118.6,52.8c0.5,0.3,3.2,0.7,8.1,1.1c1.1,0.1,1.8,0.1,2.6,0.1c0.9,0,1.7,0,3.3,0.2c2.6,0.2,4.7,0.8,5.9,1.1
			c0.2,0,0.3,0.1,0.5,0.1c0.3,0.1,0.5,0.1,0.6,0.1c0,0,0.1,0.1,0.1,0.1c0,0,0,0-0.1,0c-0.2,0-0.4,0-0.7-0.1c-0.1,0-0.3-0.1-0.5-0.1
			c-1.1-0.3-3.3-0.9-5.9-1.1c-1.6-0.1-2.5-0.2-3.3-0.2c-0.7,0-1.5,0-2.6-0.1C121.6,53.6,119,53.2,118.6,52.8z"/>
		<path class="st2" d="M79.8,56.1L79.8,56.1c0.8,1.4,2.1,3.1,3.2,4.5c0.8,1,1.5,1.9,1.7,2.4c0.6,1.1,1.5,1.7,2.4,1.7H116
			c1.2,0,1.2-1.3,1.2-2.4c0-0.1,0-0.2,0-0.3c0-1.2,0-8.6-0.3-10.1c-0.2-1.2-2-2.8-5.3-4.8c-2.5-1.4-4.8-2.5-6.5-3.1
			c-3-1-6.8-1.2-9.7-1.2l-0.9,0c-0.6,0-1.6,0-2.7,0c-1.5,0-3.2-0.1-4.6-0.1c-1.4,0-2.3,0-2.8,0.1c-1.4,0.2-6.6,7.1-6.8,8.3
			C77.5,52.3,78.5,53.9,79.8,56.1z M77.8,51.2c0.2-1.1,5.3-8,6.7-8.2c0.4-0.1,1.3-0.1,2.8-0.1c1.4,0,3.1,0,4.6,0.1c1,0,1.8,0,2.4,0
			c0,0,0,0,0,0l0.1,0c0,0,0,0,0,0.1c0.1,0,0.1,0,0.2,0l0.9,0c3,0,6.7,0.1,9.7,1.2c1.7,0.6,4,1.7,6.4,3.1c3.3,1.9,5,3.5,5.2,4.7
			c0.3,1.5,0.3,8.9,0.3,10.1c0,0.1,0,0.2,0,0.3c0,1.1,0,2.3-1.1,2.3H96c0,0,0,0.1,0,0.1l-0.1,0c0,0,0,0,0-0.1h-8.8
			c-0.8,0-1.7-0.6-2.3-1.6c-0.3-0.5-1-1.4-1.7-2.4c-1-1.4-2.3-3.1-3.1-4.4L79.9,56C78.6,53.8,77.6,52.2,77.8,51.2z"/>
	</g>
	<g>
		<path class="st3" d="M75.2,56.6c4.3,0,7.8,3.5,7.8,7.8c0,0.5,0,1-0.1,1.4c-2.5,0-4.2,0-4.8,0c-3.4,0-8.4,0-9.6,0
			c-0.3,0-0.6,0-1-0.1c-0.1-0.4-0.1-0.9-0.1-1.3C67.4,60.1,70.9,56.6,75.2,56.6z"/>
		<path class="st3" d="M124.5,65.8c-0.4,0-3,0-6.7,0c-0.1-0.5-0.1-0.9-0.1-1.4c0-4.3,3.5-7.8,7.8-7.8c4.3,0,7.8,3.5,7.8,7.8
			c0,0.8-0.1,1.6-0.4,2.4c-1.7,0-3.2,0-3.7,0C127.8,66.8,126.4,65.8,124.5,65.8z"/>
	</g>
	<path class="st4" d="M118.8,64.4c0,3.7,3,6.7,6.7,6.7c3.7,0,6.7-3,6.7-6.7s-3-6.7-6.7-6.7C121.8,57.7,118.8,60.7,118.8,64.4z"/>
	<circle class="st5" cx="125.5" cy="64.4" r="4.7"/>
	<path class="st4" d="M68.5,64.4c0,3.7,3,6.7,6.7,6.7c3.7,0,6.7-3,6.7-6.7s-3-6.7-6.7-6.7C71.5,57.7,68.5,60.7,68.5,64.4z"/>
	<circle class="st5" cx="75.2" cy="64.4" r="4.7"/>
	<path class="st6" d="M139.2,55.9c0,0,0.8,0.9,0.9,1.4c0.1,0.4,0,1-0.6,1c-0.6,0-3,0-3.6,0s-1.6-0.9-2.2-1.6c-0.6-0.7-1.5-1.8-1.2-2
		C132.7,54.5,136,54.9,139.2,55.9z"/>
	<path class="st4" d="M137.4,63c0.2-0.4,0.7-0.8,1.2-0.8h2.9c0,1,0,2,0,2c0,0.2-0.1,0.5-0.2,0.8h-4.1c-0.4,0-0.6-0.3-0.4-0.8
		L137.4,63z"/>
	<path class="st7" d="M121.7,50.7c0,0-1.8,0-2.3,0c-0.5,0-1.2-0.1-2-0.5c-0.7-0.4-3.9-2.9-6-4.1c-2-1.2-3.2-1.8-3.4-1.9
		c-0.3-0.1-0.5-0.6,0-0.6c0.4,0,1.3,0,1.3,0S115.8,46.2,121.7,50.7z"/>
	<path class="st7" d="M114.4,49.8c0.4,0.3,0.8,1.1,0,1.1c-0.8,0-16.1-0.6-16.8-0.6c-0.7,0-0.9-0.4-1.1-0.9c-0.1-0.5-1-5-1.1-5.3
		c0-0.4,0-0.7,0.6-0.7c0.7,0,5.7,0.2,8.6,1.1C107.6,45.4,111.3,47.4,114.4,49.8z"/>
	<path class="st7" d="M93.6,44.2c0,0,0.2,5.1,0.2,5.3c0,0.3-0.1,0.7-0.6,0.7c-0.5,0-16-0.4-16.6-0.4c-0.6,0-0.9-0.2-0.8-0.7
		c0.1-0.4,3.6-4.7,6.4-5.4c2.8-0.7,10.3-0.3,10.6-0.3C93.2,43.4,93.6,43.5,93.6,44.2z"/>
	<path class="st7" d="M73.9,44.2c0.5,0.2,1.2,0.5,1.3,0.6c0.3,0.1,0.2,0.5-0.5,0.9c-0.7,0.4-3,2.3-3.8,3.1c-0.9,0.8-1.5,1.1-2.1,1.1
		c-0.4,0-1.9,0-3.1,0C67.8,48.1,71.1,45.9,73.9,44.2z"/>
	<path class="st8" d="M63.2,57.3c0-0.8,0-3.2,0-4.6c0.9,0,3.2,0,3.6,0c0.5,0,0.8,0.2,0.5,1c-0.3,0.8-1.6,2.8-2,3.1
		c-0.4,0.3-0.7,0.5-1.2,0.5C64,57.3,63.6,57.3,63.2,57.3C63.2,57.3,63.2,57.3,63.2,57.3z"/>
	<path class="st8" d="M61.7,61.2c0-0.4,0-0.7,0-1.1h1.2c0.3,0,0.5,0.2,0.5,0.5s-0.2,0.5-0.5,0.5H61.7z"/>
</g>
<g>
	<g>
		<g>
			<g>
				<path class="st9" d="M20.7,31.4h-8.2c-1.3,0-2.3-1-2.3-2.3V9.7c0-1.3,1-2.3,2.3-2.3h8.2c1.3,0,2.3,1,2.3,2.3V29
					C23,30.3,22,31.4,20.7,31.4z M12.5,8.5c-0.7,0-1.2,0.5-1.2,1.2V29c0,0.7,0.5,1.2,1.2,1.2h8.2c0.7,0,1.2-0.5,1.2-1.2V9.7
					c0-0.7-0.5-1.2-1.2-1.2H12.5z"/>
			</g>
		</g>
		<g>
			<g>
				<g>
					<path class="st10" d="M16.7,30c-3.1,0-5.5-1.7-5.5-4c0-2.2,2.4-4,5.5-4c3.1,0,5.5,1.7,5.5,4C22.2,28.3,19.8,30,16.7,30z
						 M16.7,23.9c-2,0-3.8,1-3.8,2.2c0,1.2,1.8,2.2,3.8,2.2c2,0,3.8-1,3.8-2.2C20.5,24.9,18.7,23.9,16.7,23.9z"/>
				</g>
			</g>
		</g>
		<g>
			<g>
				<path class="st11" d="M31.9,65.4c0,1.6-1.3,2.9-2.9,2.9H4.4c-1.6,0-2.9-1.3-2.9-2.9V28.2c0-1.6,1.3-2.9,2.9-2.9H29
					c1.6,0,2.9,1.3,2.9,2.9V65.4z"/>
			</g>
		</g>
		<g>
			<g>
				<g>
					<path class="st9" d="M11.7,69.6c0,0.7-0.6,1.3-1.3,1.3l0,0c-0.7,0-1.3-0.6-1.3-1.3v-4.2c0-0.7,0.6-1.3,1.3-1.3l0,0
						c0.7,0,1.3,0.6,1.3,1.3V69.6z"/>
				</g>
			</g>
			<g>
				<g>
					<path class="st9" d="M24.2,69.6c0,0.7-0.6,1.3-1.3,1.3l0,0c-0.7,0-1.3-0.6-1.3-1.3v-4.2c0-0.7,0.6-1.3,1.3-1.3l0,0
						c0.7,0,1.3,0.6,1.3,1.3V69.6z"/>
				</g>
			</g>
		</g>
		<g>
			<g>
				<g>
					<path class="st10" d="M31.9,65.4c0,1.6-1.3,2.9-2.9,2.9H4.4c-1.6,0-2.9-1.3-2.9-2.9V28.2c0-1.6,1.3-2.9,2.9-2.9H29
						c1.6,0,2.9,1.3,2.9,2.9V65.4z"/>
				</g>
			</g>
		</g>
		<g>
			<g>
				<g>
					<rect x="1.4" y="29.3" class="st12" width="30.4" height="1.8"/>
				</g>
			</g>
			<g>
				<g>
					<rect x="1.3" y="61" class="st12" width="30.4" height="1.8"/>
				</g>
			</g>
		</g>
		<g>
			<g>
				<polygon class="st13" points="25.4,35.4 23,34.1 21.2,36.2 19.6,27.5 21.3,25.4 23.7,26.7 				"/>
			</g>
		</g>
		<g>
			<g>
				<g>
					
						<rect x="22.9" y="27.4" transform="matrix(0.9855 -0.1699 0.1699 0.9855 -4.7523 4.356)" class="st12" width="0.4" height="5.2"/>
				</g>
			</g>
			<g>
				<g>
					<rect x="22" y="27.6" transform="matrix(0.9854 -0.17 0.17 0.9854 -4.8034 4.2171)" class="st12" width="0.4" height="5.2"/>
				</g>
			</g>
		</g>
	</g>
	<g>
		<g>
			<g>
				<g>
					<path class="st9" d="M56.8,43.4h-1.4c-0.3,0-0.5-0.2-0.5-0.5v-1.8c0-0.3-0.2-0.5-0.5-0.5h-8.7c-0.3,0-0.5,0.2-0.5,0.5v1.8
						c0,0.3-0.2,0.5-0.5,0.5h-1.4c-0.3,0-0.5-0.2-0.5-0.5v-2.8c0-1.1,0.9-1.9,1.9-1.9h10.6c1.1,0,1.9,0.9,1.9,1.9v2.8
						C57.2,43.2,57,43.4,56.8,43.4z"/>
				</g>
				<g>
					<path class="st14" d="M69.3,49.8v14.4c0,3.8-3.1,7-7,7H37.7c-3.8,0-7-3.1-7-7V49.8c0-3.8,3.1-7,7-7h24.6
						C66.1,42.8,69.3,46,69.3,49.8z"/>
				</g>
				<g>
					<g>
						<rect x="37.9" y="42.8" class="st9" width="2.8" height="28.3"/>
					</g>
					<g>
						<rect x="59.3" y="42.8" class="st9" width="2.8" height="28.3"/>
					</g>
					<g>
						<path class="st9" d="M65,71.1h2.6h0.1c0.8,0,1.5-0.7,1.5-1.5v-0.1v-2.6l0,0C66.9,66.8,65,68.7,65,71.1z"/>
					</g>
					<g>
						<path class="st9" d="M35,71.1c0-2.4-1.9-4.3-4.3-4.3l0,0l0,0v2.6v0.1c0,0.8,0.7,1.5,1.5,1.5h0.1H35z"/>
					</g>
					<g>
						<path class="st9" d="M35,42.8h-2.7c-0.8,0-1.5,0.7-1.5,1.5v0.1v2.6l0,0C33.1,47.1,35,45.2,35,42.8z"/>
					</g>
					<g>
						<path class="st9" d="M67.7,42.8H65c0,2.4,1.9,4.3,4.3,4.3v-2.6v-0.1C69.3,43.5,68.6,42.8,67.7,42.8z"/>
					</g>
				</g>
			</g>
		</g>
		<g>
			<g>
				<path class="st6" d="M55.7,52.2c0.1-0.2-0.1-0.5-0.3-0.6l0.1-0.5c0.2,0.1,0.5-0.1,0.6-0.3c0.1-0.2-0.1-0.5-0.3-0.6
					c-0.2-0.1-0.5,0.1-0.6,0.3l-0.5-0.1c0,0,0,0,0,0c0.1-0.2-0.1-0.5-0.3-0.6c-0.2-0.1-0.5,0.1-0.6,0.3c0,0,0,0,0,0l-0.5-0.1
					c0,0,0,0,0,0c0.1-0.2-0.1-0.5-0.3-0.6c-0.2-0.1-0.5,0.1-0.6,0.3v0L52,49.7c0.1-0.2-0.1-0.5-0.3-0.6c-0.2-0.1-0.5,0.1-0.6,0.3
					C51,49.7,51.2,50,51.4,50l-0.1,0.5c-0.2-0.1-0.5,0.1-0.6,0.3c-0.1,0.2,0.1,0.5,0.3,0.6l-0.1,0.5c-0.2-0.1-0.5,0.1-0.6,0.3
					c-0.1,0.2,0.1,0.5,0.3,0.6l-0.1,0.5c-0.2-0.1-0.5,0.1-0.6,0.3c-0.1,0.2,0.1,0.5,0.3,0.6c0.2,0.1,0.5-0.1,0.6-0.3l0.5,0.1
					c-0.1,0.2,0.1,0.5,0.3,0.6c0.2,0.1,0.5-0.1,0.6-0.3l0.5,0.1c-0.1,0.2,0.1,0.5,0.3,0.6c0.2,0.1,0.5-0.1,0.6-0.3l0.5,0.1
					c-0.1,0.2,0.1,0.5,0.3,0.6c0.2,0.1,0.5-0.1,0.6-0.3c0.1-0.2-0.1-0.5-0.3-0.6l0.1-0.5c0.2,0.1,0.5-0.1,0.6-0.3
					c0.1-0.2-0.1-0.5-0.3-0.6l0.1-0.5C55.4,52.5,55.6,52.4,55.7,52.2z"/>
			</g>
			<g>
				
					<rect x="51.4" y="50.5" transform="matrix(0.9676 0.2525 -0.2525 0.9676 14.9008 -11.7024)" class="st12" width="3.3" height="3.3"/>
			</g>
			<g>
				<path class="st9" d="M56.5,54.6c-0.1,0-0.2,0-0.3,0c-0.3-0.1-0.4-0.2-0.5-0.3c-0.1-0.1-0.2-0.2-0.5-0.2c-0.2-0.1-0.4,0-0.5,0
					c-0.2,0-0.3,0.1-0.6,0c-0.3-0.1-0.4-0.2-0.5-0.3c-0.1-0.1-0.2-0.2-0.5-0.2l0-0.2c0.3,0.1,0.4,0.2,0.5,0.3
					c0.1,0.1,0.2,0.2,0.5,0.2c0.2,0.1,0.4,0,0.5,0c0.2,0,0.3-0.1,0.6,0c0.3,0.1,0.4,0.2,0.5,0.3c0.1,0.1,0.2,0.2,0.5,0.2
					c0.2,0.1,0.4,0,0.5,0c0.2,0,0.3-0.1,0.6,0l0,0.2c-0.2-0.1-0.4,0-0.5,0C56.7,54.6,56.6,54.6,56.5,54.6z"/>
			</g>
			<g>
				<path class="st9" d="M56.6,54.2c-0.1,0-0.2,0-0.3,0c-0.3-0.1-0.4-0.2-0.5-0.3c-0.1-0.1-0.2-0.2-0.5-0.2c-0.2-0.1-0.4,0-0.5,0
					c-0.2,0-0.3,0.1-0.6,0c-0.3-0.1-0.4-0.2-0.5-0.3c-0.1-0.1-0.2-0.2-0.5-0.2l0-0.2c0.3,0.1,0.4,0.2,0.5,0.3
					c0.1,0.1,0.2,0.2,0.5,0.2c0.2,0.1,0.4,0,0.5,0c0.2,0,0.3-0.1,0.6,0c0.3,0.1,0.4,0.2,0.5,0.3c0.1,0.1,0.2,0.2,0.5,0.2
					c0.2,0.1,0.4,0,0.5,0c0.2,0,0.3-0.1,0.6,0l0,0.2c-0.2-0.1-0.4,0-0.5,0C56.8,54.2,56.7,54.2,56.6,54.2z"/>
			</g>
			<g>
				<path class="st9" d="M56.7,53.9c-0.1,0-0.2,0-0.3,0c-0.3-0.1-0.4-0.2-0.5-0.3c-0.1-0.1-0.2-0.2-0.5-0.2c-0.2-0.1-0.4,0-0.5,0
					c-0.2,0-0.3,0.1-0.6,0c-0.3-0.1-0.4-0.2-0.5-0.3c-0.1-0.1-0.2-0.2-0.5-0.2l0-0.2c0.3,0.1,0.4,0.2,0.5,0.3
					c0.1,0.1,0.2,0.2,0.5,0.2c0.2,0.1,0.4,0,0.5,0c0.2,0,0.3-0.1,0.6,0c0.3,0.1,0.4,0.2,0.5,0.3c0.1,0.1,0.2,0.2,0.5,0.2
					c0.2,0.1,0.4,0,0.5,0c0.2,0,0.3-0.1,0.6,0l0,0.2c-0.2-0.1-0.4,0-0.5,0C56.9,53.9,56.8,53.9,56.7,53.9z"/>
			</g>
			<g>
				<path class="st9" d="M56.8,53.5c-0.1,0-0.2,0-0.3,0c-0.3-0.1-0.4-0.2-0.5-0.3c-0.1-0.1-0.2-0.2-0.5-0.2c-0.2-0.1-0.4,0-0.5,0
					c-0.2,0-0.3,0.1-0.6,0c-0.3-0.1-0.4-0.2-0.5-0.3c-0.1-0.1-0.2-0.2-0.5-0.2l0-0.2c0.3,0.1,0.4,0.2,0.5,0.3
					c0.1,0.1,0.2,0.2,0.5,0.2c0.2,0.1,0.4,0,0.5,0c0.2,0,0.3-0.1,0.6,0c0.3,0.1,0.4,0.2,0.5,0.3c0.1,0.1,0.2,0.2,0.5,0.2
					c0.2,0.1,0.4,0,0.5,0c0.2,0,0.3-0.1,0.6,0l0,0.2c-0.2-0.1-0.4,0-0.5,0C57,53.5,56.9,53.5,56.8,53.5z"/>
			</g>
		</g>
		<g>
			<path class="st12" d="M45.1,59.7c-0.3-0.3-0.7-0.4-0.9-0.4c-0.1,0-0.1,0-0.2,0c0,0,0,0,0,0c0,0,0,0,0,0c0,0-0.1,0.1-0.1,0.2
				c0,0.3,0.1,0.6,0.4,1c0.2,0.3,0.5,0.6,0.9,0.9c0.1,0.1,0.1,0.1,0.2,0.2l-0.2,0.7l0,0c0,0-0.1,0-0.1,0c0,0-0.1,0-0.1,0l-0.1,0.1
				c0,0,0,0.1-0.1,0.1c0,0,0,0.1,0,0.1l0.2,0.2l0,0.1c0,0-0.1,0-0.1,0c0,0-0.1,0-0.1,0l-0.1,0.1c0,0,0,0.1,0,0.1c0,0,0,0.1,0,0.1
				l0.2,0.2l-0.2,0.7c0,0,0,0,0,0.1c0,0.1,0,0.1,0.1,0.1l0.3,0.3c0,0,0.1,0,0.1,0c0.1,0,0.1,0,0.1-0.1l0.9-1.6c0,0,0,0,0,0l0.5-0.4
				c0.4,0.4,0.9,0.8,1.2,1.1c0,0,0.1,0.1,0.1,0.1l-0.1,1.2c0,0,0,0,0,0c0,0.1,0,0.1,0.1,0.2l0.1,0.1c0,0,0.1,0,0.1,0
				c0.1,0,0.1,0,0.1-0.1l0.4-0.9c0,0,0,0,0,0l0.1-0.1c0.1,0,0.1,0,0.2,0c0.1,0,0.1,0,0.2-0.1l0,0l0,0c0,0,0.1-0.1,0.1-0.2
				c0,0,0-0.1,0-0.2l0.1-0.1c0,0,0,0,0,0l0.9-0.4c0.1,0,0.1-0.1,0.1-0.1v0c0,0,0-0.1,0-0.1l-0.1-0.1c0,0-0.1-0.1-0.1-0.1
				c0,0,0,0,0,0l-1.2,0.1c0,0,0-0.1-0.1-0.1c-0.3-0.4-0.7-0.8-1.1-1.3l0.5-0.4c0,0,0,0,0,0l1.6-0.9c0.1,0,0.1-0.1,0.1-0.1
				c0,0,0-0.1,0-0.1l-0.3-0.3c0,0-0.1-0.1-0.1-0.1c0,0,0,0-0.1,0l-0.8,0.2L48,60.1c0,0-0.1,0-0.1-0.1c0,0-0.1,0-0.1,0l-0.1,0.1
				c0,0,0,0.1,0,0.1c0,0,0,0.1,0,0.1l-0.1,0l-0.2-0.2c0,0-0.1,0-0.1,0c0,0-0.1,0-0.1,0L47,60.4c0,0,0,0.1-0.1,0.1c0,0,0,0.1,0,0.1
				l0,0l-0.7,0.2c-0.1-0.1-0.1-0.2-0.2-0.2C45.7,60.2,45.4,59.9,45.1,59.7L45.1,59.7z M45.1,59.7"/>
		</g>
	</g>
</g>
</svg>
