<?xml version="1.0" encoding="utf-8"?>
<!-- Generator: Adobe Illustrator 22.1.0, SVG Export Plug-In . SVG Version: 6.00 Build 0)  -->
<svg version="1.1" id="Слой_1" xmlns="http://www.w3.org/2000/svg" xmlns:xlink="http://www.w3.org/1999/xlink" x="0px" y="0px"
	 viewBox="0 0 6.6 6.6" style="enable-background:new 0 0 6.6 6.6;" xml:space="preserve">
<style type="text/css">
	.st0{fill:#1B5870;}
</style>
<g>
	<g>
		<g>
			<path class="st0" d="M5,4.3c-0.2-0.2-0.5-0.2-0.7,0C4.1,4.5,4,4.7,3.8,4.8c0,0-0.1,0.1-0.1,0C3.6,4.8,3.5,4.7,3.4,4.7
				C2.9,4.4,2.5,4,2.2,3.6C2,3.4,1.8,3.2,1.7,2.9c0-0.1,0-0.1,0-0.1c0.2-0.2,0.3-0.3,0.5-0.5c0.2-0.2,0.2-0.5,0-0.7
				C2.1,1.5,2,1.4,1.9,1.2C1.7,1.1,1.6,1,1.5,0.8C1.3,0.6,1,0.6,0.8,0.8C0.6,1,0.5,1.2,0.3,1.3C0.2,1.5,0.1,1.6,0.1,1.8
				c0,0.3,0.1,0.7,0.2,1c0.2,0.6,0.6,1.2,1,1.7c0.6,0.7,1.3,1.3,2.1,1.7c0.4,0.2,0.8,0.3,1.2,0.3c0.3,0,0.5-0.1,0.7-0.3
				C5.5,6.1,5.6,6,5.8,5.8C6,5.6,6,5.3,5.8,5.1C5.5,4.9,5.2,4.6,5,4.3L5,4.3z M5,4.3"/>
		</g>
		<path class="st0" d="M4.7,3.3l0.5-0.1C5.1,2.7,4.9,2.3,4.6,2C4.3,1.6,3.8,1.4,3.3,1.4L3.3,1.9c0.4,0.1,0.7,0.2,1,0.5
			C4.5,2.6,4.7,2.9,4.7,3.3L4.7,3.3z M4.7,3.3"/>
		<path class="st0" d="M5.5,1.1c-0.6-0.6-1.3-0.9-2.1-1L3.3,0.6C4,0.7,4.7,1,5.1,1.5C5.6,1.9,5.9,2.5,6,3.2l0.5-0.1
			C6.4,2.3,6,1.7,5.5,1.1L5.5,1.1z M5.5,1.1"/>
	</g>
</g>
</svg>
