<?xml version="1.0" encoding="utf-8"?>
<svg xmlns="http://www.w3.org/2000/svg"
	xmlns:xlink="http://www.w3.org/1999/xlink"
	width="20px" height="20px" viewBox="0 0 20 20">
<path fillRule="evenodd" d="M 2 0.01C 0.89 0.01-0 1.01-0 2.12-0 2.12-0 10.12-0 10.12-0 10.12-0 16.12-0 16.12-0 16.12-0 16.12-0 16.12-0 17.22 0.89 18.12 2 18.12 2 18.12 2 18.12 2 18.12 2 18.12 2 19.12 2 19.12 2 19.67 2.45 20.01 3 20.01 3 20.01 5 20.01 5 20.01 5.55 20.01 6 19.67 6 19.12 6 19.12 6 18.01 6 18.01 6 18.01 13.99 18.01 13.99 18.01 13.99 18.01 13.99 19.12 13.99 19.12 13.99 19.67 14.44 20.01 14.99 20.01 14.99 20.01 16.99 20.01 16.99 20.01 17.54 20.01 17.99 19.67 17.99 19.12 17.99 19.12 17.99 18.12 17.99 18.12 17.99 18.12 17.99 18.12 17.99 18.12 19.1 18.12 19.99 17.22 19.99 16.12 19.99 16.12 19.99 16.12 19.99 16.12 19.99 16.12 19.99 10.12 19.99 10.12 19.99 10.12 19.99 2.12 19.99 2.12 19.99 1.01 19.1 0.01 17.99 0.01 17.99 0.01 2 0.01 2 0.01ZM 15.99 16.12C 15.99 16.12 15.99 16.12 15.99 16.12 15.44 16.12 14.99 15.67 14.99 15.12 14.99 15.12 14.99 15.12 14.99 15.12 14.99 14.57 15.44 14.12 15.99 14.12 15.99 14.12 15.99 14.12 15.99 14.12 16.54 14.12 16.99 14.57 16.99 15.12 16.99 15.12 16.99 15.12 16.99 15.12 16.99 15.67 16.54 16.12 15.99 16.12ZM 4 16.12C 4 16.12 4 16.12 4 16.12 3.45 16.12 3 15.67 3 15.12 3 15.12 3 15.12 3 15.12 3 14.57 3.45 14.12 4 14.12 4 14.12 4 14.12 4 14.12 4.55 14.12 5 14.57 5 15.12 5 15.12 5 15.12 5 15.12 5 15.67 4.55 16.12 4 16.12ZM 2 10.01C 2 10.01 2 3.12 2 3.12 2 2.57 2.45 2.01 3 2.01 3 2.01 16.99 2.01 16.99 2.01 17.54 2.01 17.99 2.57 17.99 3.12 17.99 3.12 17.99 10.01 17.99 10.01 17.99 10.01 2 10.01 2 10.01Z" fill="rgb(3,181,231)" opacity="0.70"/></svg>