<?xml version="1.0" encoding="UTF-8"?>
<!DOCTYPE svg PUBLIC "-//W3C//DTD SVG 1.1//EN" "http://www.w3.org/Graphics/SVG/1.1/DTD/svg11.dtd">
<!-- Creator: CorelDRAW 2017 -->
<svg xmlns="http://www.w3.org/2000/svg" xml:space="preserve" width="30px" height="30px" version="1.1" style="shape-rendering:geometricPrecision; text-rendering:geometricPrecision; image-rendering:optimizeQuality; fill-rule:evenodd; clip-rule:evenodd"
viewBox="0 0 30 30"
 xmlns:xlink="http://www.w3.org/1999/xlink">
 <defs>
  <style type="text/css">
   <![CDATA[
    .fil0 {fill:#E5E4E9}
   ]]>
  </style>
 </defs>
 <g id="Слой_x0020_1">
  <metadata id="CorelCorpID_0Corel-Layer"/>
  <polygon class="fil0" points="2.03,13.76 2.03,16.05 24.57,16.05 24.02,16.64 23.53,17.19 22.95,17.78 22.49,18.33 21.92,18.96 21.45,19.48 20.89,20.06 20.41,20.62 20.41,22.91 21.45,22.91 21.95,22.31 22.49,21.76 22.99,21.21 23.53,20.62 24.06,20.06 24.57,19.48 25.05,18.92 25.61,18.33 26.05,17.85 26.65,17.19 27.19,16.64 27.69,16.05 27.69,13.76 27.19,13.17 26.65,12.62 26.12,12.03 25.61,11.48 25.09,10.89 24.57,10.33 24.07,9.78 23.53,9.19 23,8.56 22.49,8.05 21.97,7.46 21.45,6.9 20.41,6.9 20.41,9.19 21.11,9.96 21.45,10.33 21.99,11 22.49,11.48 23.02,12.1 23.53,12.62 24.06,13.21 24.57,13.76 "/>
 </g>
</svg>
