<?xml version="1.0" encoding="UTF-8"?>
<!DOCTYPE svg PUBLIC "-//W3C//DTD SVG 1.1//EN" "http://www.w3.org/Graphics/SVG/1.1/DTD/svg11.dtd">
<!-- Creator: CorelDRAW 2017 -->
<svg xmlns="http://www.w3.org/2000/svg" xml:space="preserve" width="30px" height="30px" version="1.1" style="shape-rendering:geometricPrecision; text-rendering:geometricPrecision; image-rendering:optimizeQuality; fill-rule:evenodd; clip-rule:evenodd"
viewBox="0 0 30 30"
 xmlns:xlink="http://www.w3.org/1999/xlink">
 <defs>
  <style type="text/css">
   <![CDATA[
    .fil1 {fill:#FEFEFE}
    .fil0 {fill:#676767}
   ]]>
  </style>
 </defs>
 <g id="Слой_x0020_1">
  <metadata id="CorelCorpID_0Corel-Layer"/>
  <g id="_1896791313520">
   <g>
    <path class="fil0" d="M11.38 7.74l-3.59 0.13 0 17.87 14.77 0.04 0.05 -17.93 -3.65 0c0.06,-3.9 0.21,-4.07 -3.7,-4.07 -4.06,0 -3.88,0 -3.88,3.96z"/>
    <path class="fil0" d="M23.91 25.74c1.04,0.01 2.39,0.14 3.25,-0.28 0.66,-0.32 1.27,-1.01 1.41,-1.99 0.14,-0.97 0.14,-12.69 -0.03,-13.5 -0.49,-2.49 -3.13,-2.14 -4.63,-2.14l0 17.91z"/>
    <path class="fil0" d="M6.43 7.83c-1.44,-0.01 -4.22,-0.36 -4.65,2.28 -0.15,0.87 -0.14,12.58 0,13.43 0.46,2.63 3.19,2.21 4.65,2.2l0 -17.91z"/>
   </g>
   <rect class="fil1" x="12.79" y="5.23" width="4.66" height="2.39"/>
  </g>
 </g>
</svg>
