<?xml version="1.0" encoding="utf-8"?>
<svg xmlns="http://www.w3.org/2000/svg"
	xmlns:xlink="http://www.w3.org/1999/xlink"
	width="31px" height="31px" viewBox="0 0 31 31">
<path fillRule="evenodd" d="M 15.5 31C 6.94 31 0 24.06 0 15.5 0 6.94 6.94-0 15.5-0 24.06-0 31 6.94 31 15.5 31 24.06 24.06 31 15.5 31ZM 15.5 1.03C 7.37 1.03 1.03 7.37 1.03 15.5 1.03 23.63 7.37 29.96 15.5 29.96 23.46 29.96 29.68 23.89 29.94 16.01 29.94 16.01 11.64 16.01 11.64 16.01 11.64 16.01 15.45 19.8 15.45 19.8 15.65 20 15.65 20.32 15.45 20.52 15.25 20.72 14.92 20.72 14.72 20.52 14.72 20.52 9.97 15.81 9.97 15.81 9.97 15.81 9.97 15.81 9.97 15.81 9.97 15.81 9.97 15.81 9.97 15.81 9.87 15.71 9.82 15.58 9.82 15.45 9.82 15.32 9.87 15.19 9.97 15.09 9.98 15.08 9.99 15.08 9.99 15.08 9.99 15.08 14.64 10.47 14.64 10.47 14.84 10.28 15.16 10.28 15.36 10.47 15.56 10.67 15.56 10.99 15.36 11.19 15.36 11.19 11.53 14.98 11.53 14.98 11.53 14.98 29.94 14.98 29.94 14.98 29.68 7.1 23.46 1.03 15.5 1.03Z" fill="rgb(3,181,231)"/></svg>