<?xml version="1.0" encoding="utf-8"?>
<svg xmlns="http://www.w3.org/2000/svg"
	xmlns:xlink="http://www.w3.org/1999/xlink"
	width="10px" height="20px" viewBox="0 0 10 20">
<path fillRule="evenodd" d="M 9.84 9.59C 9.84 9.59 0.9 0.15 0.9 0.15 0.69-0.07 0.35-0.07 0.14 0.15-0.07 0.37-0.07 0.73 0.14 0.95 0.14 0.95 8.7 9.99 8.7 9.99 8.7 9.99 0.14 19.03 0.14 19.03-0.07 19.25-0.07 19.61 0.14 19.83 0.25 19.94 0.38 20 0.52 20 0.65 20 0.79 19.94 0.9 19.83 0.9 19.83 9.84 10.39 9.84 10.39 10.05 10.17 10.05 9.81 9.84 9.59Z" fill="rgb(255,255,255)"/></svg>