<?xml version="1.0" encoding="UTF-8" standalone="no"?>
<svg
   xmlns:dc="http://purl.org/dc/elements/1.1/"
   xmlns:cc="http://creativecommons.org/ns#"
   xmlns:rdf="http://www.w3.org/1999/02/22-rdf-syntax-ns#"
   xmlns:svg="http://www.w3.org/2000/svg"
   xmlns="http://www.w3.org/2000/svg"
   id="svg4"
   version="1.1"
   viewBox="0 0 10 20"
   height="20px"
   width="10px">
  <metadata
     id="metadata10">
    <rdf:RDF>
      <cc:Work
         rdf:about="">
        <dc:format>image/svg+xml</dc:format>
        <dc:type
           rdf:resource="http://purl.org/dc/dcmitype/StillImage" />
        <dc:title></dc:title>
      </cc:Work>
    </rdf:RDF>
  </metadata>
  <defs
     id="defs8" />
  <path
     style="fill:#ffffff"
     id="path2"
     d="m 0.14,9.59 c 0,0 8.94,-9.44 8.94,-9.44 0.21,-0.22 0.55,-0.22 0.76,0 0.21,0.22 0.21,0.58 0,0.8 0,0 -8.56,9.04 -8.56,9.04 0,0 8.56,9.04 8.56,9.04 0.21,0.22 0.21,0.58 0,0.8 C 9.73,19.94 9.6,20 9.46,20 9.33,20 9.19,19.94 9.08,19.83 c 0,0 -8.94,-9.44 -8.94,-9.44 -0.21,-0.22 -0.21,-0.58 0,-0.8 z"
     fillRule="evenodd" />
</svg>
