<?xml version="1.0" encoding="utf-8"?>
<svg xmlns="http://www.w3.org/2000/svg"
	xmlns:xlink="http://www.w3.org/1999/xlink"
	width="93px" height="61px" viewBox="0 0 93 61">
<path fillRule="evenodd" d="M 90.93 2.97C 74.99 2.97 61.31 12.31 55.45 25.63 59.37 21.75 64.84 19.34 70.89 19.34 82.81 19.34 92.47 28.66 92.47 40.17 92.47 51.67 82.81 61 70.89 61 58.98 61 49.32 51.67 49.32 40.17 49.32 17.98 67.95-0 90.93-0 90.93-0 90.93-0 90.93-0 91.78-0 92.47 0.66 92.47 1.48 92.47 2.3 91.78 2.97 90.93 2.97ZM 21.58 19.34C 33.49 19.34 43.15 28.66 43.15 40.17 43.15 51.67 33.49 61 21.58 61 9.66 61-0 51.67-0 40.17-0 17.98 18.63-0 41.61-0 41.61-0 41.61-0 41.61-0 42.46-0 43.15 0.66 43.15 1.48 43.15 2.3 42.46 2.97 41.61 2.97 41.61 2.97 41.61 2.97 41.61 2.97 25.67 2.97 12 12.31 6.14 25.63 10.05 21.75 15.52 19.34 21.58 19.34Z" fill="rgb(3,181,230)" opacity="0.10"/></svg>